<mxfile host="65bd71144e">
    <diagram id="wIEtA-WHJkr-hZ-5ff56" name="Page-1">
        <mxGraphModel dx="1216" dy="710" grid="1" gridSize="10" guides="1" tooltips="1" connect="1" arrows="1" fold="1" page="1" pageScale="1" pageWidth="850" pageHeight="1100" math="0" shadow="0">
            <root>
                <mxCell id="0"/>
                <mxCell id="1" parent="0"/>
                <mxCell id="2" value="&lt;p class=&quot;Code&quot;&gt;&lt;span style=&quot;font-family:&amp;quot;Aptos&amp;quot;,sans-serif;mso-ascii-theme-font:&lt;br/&gt;minor-latin;mso-hansi-theme-font:minor-latin&quot;&gt;Sie sind Teil des Teams, das für&lt;br&gt;die Entwicklung einer Cloud-Datenbank zur Verwaltung von Operationen im&lt;br&gt;klinischen Bereich verantwortlich ist, welches die AMAG Soft GmbH potenziellen&lt;br&gt;Kunden zur Verfügung stellen möchte.&lt;/span&gt;&lt;/p&gt;&lt;p class=&quot;Code&quot;&gt;&lt;span style=&quot;font-family:&amp;quot;Aptos&amp;quot;,sans-serif;mso-ascii-theme-font:&lt;br/&gt;minor-latin;mso-hansi-theme-font:minor-latin&quot;&gt;Für einen ersten Entwurf stehen&lt;br&gt;Ihnen nachfolgende Informationen zur Verfügung.&lt;/span&gt;&lt;/p&gt;&lt;p class=&quot;Code&quot; style=&quot;margin-left:36.0pt;text-indent:-18.0pt;mso-list:l0 level1 lfo1;&lt;br/&gt;tab-stops:list 36.0pt&quot;&gt;&lt;span style=&quot;font-size:10.0pt;&lt;br/&gt;mso-bidi-font-size:11.0pt;line-height:107%;font-family:Symbol;mso-fareast-font-family:&lt;br/&gt;Symbol;mso-bidi-font-family:Symbol&quot;&gt;·&lt;span style=&quot;font-variant-numeric: normal; font-variant-east-asian: normal; font-variant-alternates: normal; font-size-adjust: none; font-kerning: auto; font-optical-sizing: auto; font-feature-settings: normal; font-variation-settings: normal; font-variant-position: normal; font-variant-emoji: normal; font-stretch: normal; font-size: 7pt; line-height: normal; font-family: &amp;quot;Times New Roman&amp;quot;;&quot;&gt;&amp;nbsp;&amp;nbsp;&amp;nbsp;&amp;nbsp;&amp;nbsp;&amp;nbsp;&amp;nbsp;&amp;nbsp;&lt;br&gt;&lt;/span&gt;&lt;/span&gt;&lt;span style=&quot;font-family:&amp;quot;Aptos&amp;quot;,sans-serif;&lt;br/&gt;mso-ascii-theme-font:minor-latin;mso-hansi-theme-font:minor-latin&quot;&gt;Die Daten&lt;br&gt;von den Ärzten, den Patienten, Medikamenten und den Operationssälen liegen&lt;br&gt;schon in entsprechenden Tabellen vor.&lt;/span&gt;&lt;/p&gt;&lt;p class=&quot;Code&quot; style=&quot;margin-left:36.0pt;text-indent:-18.0pt;mso-list:l0 level1 lfo1;&lt;br/&gt;tab-stops:list 36.0pt&quot;&gt;&lt;span style=&quot;font-size:10.0pt;&lt;br/&gt;mso-bidi-font-size:11.0pt;line-height:107%;font-family:Symbol;mso-fareast-font-family:&lt;br/&gt;Symbol;mso-bidi-font-family:Symbol&quot;&gt;·&lt;span style=&quot;font-variant-numeric: normal; font-variant-east-asian: normal; font-variant-alternates: normal; font-size-adjust: none; font-kerning: auto; font-optical-sizing: auto; font-feature-settings: normal; font-variation-settings: normal; font-variant-position: normal; font-variant-emoji: normal; font-stretch: normal; font-size: 7pt; line-height: normal; font-family: &amp;quot;Times New Roman&amp;quot;;&quot;&gt;&amp;nbsp;&amp;nbsp;&amp;nbsp;&amp;nbsp;&amp;nbsp;&amp;nbsp;&amp;nbsp;&amp;nbsp;&lt;br&gt;&lt;/span&gt;&lt;/span&gt;&lt;span style=&quot;font-family:&amp;quot;Aptos&amp;quot;,sans-serif;&lt;br/&gt;mso-ascii-theme-font:minor-latin;mso-hansi-theme-font:minor-latin&quot;&gt;Von jeder&lt;br&gt;Operation soll der Patient, das Datum, die Uhrzeit, der Operationssaal, die&lt;br&gt;beteiligten Ärzte mit deren Funktion bei der Operation und eventuell&lt;br&gt;Besonderheiten erfasst werden können.&lt;/span&gt;&lt;/p&gt;&lt;p class=&quot;Code&quot; style=&quot;margin-left: 36pt; text-indent: -18pt;&quot;&gt;&lt;span style=&quot;font-size:10.0pt;&lt;br/&gt;mso-bidi-font-size:11.0pt;line-height:107%;font-family:Symbol;mso-fareast-font-family:&lt;br/&gt;Symbol;mso-bidi-font-family:Symbol&quot;&gt;·&lt;span style=&quot;font-variant-numeric: normal; font-variant-east-asian: normal; font-variant-alternates: normal; font-size-adjust: none; font-kerning: auto; font-optical-sizing: auto; font-feature-settings: normal; font-variation-settings: normal; font-variant-position: normal; font-variant-emoji: normal; font-stretch: normal; font-size: 7pt; line-height: normal; font-family: &amp;quot;Times New Roman&amp;quot;;&quot;&gt;&amp;nbsp;&amp;nbsp;&amp;nbsp;&amp;nbsp;&amp;nbsp;&amp;nbsp;&amp;nbsp;&amp;nbsp;&lt;br&gt;&lt;/span&gt;&lt;/span&gt;&lt;span style=&quot;font-family:&amp;quot;Aptos&amp;quot;,sans-serif;&lt;br/&gt;mso-ascii-theme-font:minor-latin;mso-hansi-theme-font:minor-latin&quot;&gt;Bei einer&lt;br&gt;Operation übt jeder Arzt immer nur eine Funktion aus, z. B. Anästhesist.&lt;/span&gt;&lt;/p&gt;&lt;p class=&quot;Code&quot; style=&quot;margin-left:36.0pt;text-indent:-18.0pt;mso-list:l0 level1 lfo1;&lt;br/&gt;tab-stops:list 36.0pt&quot;&gt;&lt;span style=&quot;font-size:10.0pt;&lt;br/&gt;mso-bidi-font-size:11.0pt;line-height:107%;font-family:Symbol;mso-fareast-font-family:&lt;br/&gt;Symbol;mso-bidi-font-family:Symbol&quot;&gt;·&lt;span style=&quot;font-variant-numeric: normal; font-variant-east-asian: normal; font-variant-alternates: normal; font-size-adjust: none; font-kerning: auto; font-optical-sizing: auto; font-feature-settings: normal; font-variation-settings: normal; font-variant-position: normal; font-variant-emoji: normal; font-stretch: normal; font-size: 7pt; line-height: normal; font-family: &amp;quot;Times New Roman&amp;quot;;&quot;&gt;&amp;nbsp;&amp;nbsp;&amp;nbsp;&amp;nbsp;&amp;nbsp;&amp;nbsp;&amp;nbsp;&amp;nbsp;&lt;br&gt;&lt;/span&gt;&lt;/span&gt;&lt;span style=&quot;font-family:&amp;quot;Aptos&amp;quot;,sans-serif;&lt;br/&gt;mso-ascii-theme-font:minor-latin;mso-hansi-theme-font:minor-latin&quot;&gt;Die&lt;br&gt;einzelnen Funktionen sollen mit Bezeichnung und einer entsprechenden&lt;br&gt;Kurzbeschreibung in einer extra Tabelle gespeichert werden.&lt;/span&gt;&lt;/p&gt;&lt;p class=&quot;Code&quot; style=&quot;margin-left:36.0pt;text-indent:-18.0pt;mso-list:l0 level1 lfo1;&lt;br/&gt;tab-stops:list 36.0pt&quot;&gt;&lt;span style=&quot;font-size:10.0pt;&lt;br/&gt;mso-bidi-font-size:11.0pt;line-height:107%;font-family:Symbol;mso-fareast-font-family:&lt;br/&gt;Symbol;mso-bidi-font-family:Symbol&quot;&gt;·&lt;span style=&quot;font-variant-numeric: normal; font-variant-east-asian: normal; font-variant-alternates: normal; font-size-adjust: none; font-kerning: auto; font-optical-sizing: auto; font-feature-settings: normal; font-variation-settings: normal; font-variant-position: normal; font-variant-emoji: normal; font-stretch: normal; font-size: 7pt; line-height: normal; font-family: &amp;quot;Times New Roman&amp;quot;;&quot;&gt;&amp;nbsp;&amp;nbsp;&amp;nbsp;&amp;nbsp;&amp;nbsp;&amp;nbsp;&amp;nbsp;&amp;nbsp;&lt;br&gt;&lt;/span&gt;&lt;/span&gt;&lt;span style=&quot;font-family:&amp;quot;Aptos&amp;quot;,sans-serif;&lt;br/&gt;mso-ascii-theme-font:minor-latin;mso-hansi-theme-font:minor-latin&quot;&gt;Zusätzlich&lt;br&gt;soll jeder Operation eine Operationsart zugewiesen werden. Zu jeder&lt;br&gt;Operationsart soll eine Bezeichnung und eine Kurzbeschreibung in der Datenbank&lt;br&gt;hinterlegt werden.&lt;/span&gt;&lt;/p&gt;&lt;p class=&quot;Code&quot; style=&quot;margin-left:36.0pt;text-indent:-18.0pt;mso-list:l0 level1 lfo1;&lt;br/&gt;tab-stops:list 36.0pt&quot;&gt;&lt;span style=&quot;font-size:10.0pt;&lt;br/&gt;mso-bidi-font-size:11.0pt;line-height:107%;font-family:Symbol;mso-fareast-font-family:&lt;br/&gt;Symbol;mso-bidi-font-family:Symbol&quot;&gt;·&lt;span style=&quot;font-variant-numeric: normal; font-variant-east-asian: normal; font-variant-alternates: normal; font-size-adjust: none; font-kerning: auto; font-optical-sizing: auto; font-feature-settings: normal; font-variation-settings: normal; font-variant-position: normal; font-variant-emoji: normal; font-stretch: normal; font-size: 7pt; line-height: normal; font-family: &amp;quot;Times New Roman&amp;quot;;&quot;&gt;&amp;nbsp;&amp;nbsp;&amp;nbsp;&amp;nbsp;&amp;nbsp;&amp;nbsp;&amp;nbsp;&amp;nbsp;&lt;br&gt;&lt;/span&gt;&lt;/span&gt;&lt;span style=&quot;font-family:&amp;quot;Aptos&amp;quot;,sans-serif;&lt;br/&gt;mso-ascii-theme-font:minor-latin;mso-hansi-theme-font:minor-latin&quot;&gt;Des Weiteren&lt;br&gt;sollen Informationen zur Anästhesieform (Narkose) für jede Operation erfasst&lt;br&gt;werden. Zu diesen Informationen gehören die Dauer der Anästhesie und das dafür&lt;br&gt;verwendete Medikament. Pro Operation wird nur eine Anästhesieform gespeichert.&lt;br&gt;Allerdings kann die gleiche Anästhesieform auch bei mehreren Operationen zur&lt;br&gt;Anwendung kommen.&lt;/span&gt;&lt;/p&gt;&lt;br&gt;&lt;p class=&quot;Code&quot;&gt;&lt;span style=&quot;font-family:&amp;quot;Aptos&amp;quot;,sans-serif;mso-ascii-theme-font:&lt;br/&gt;minor-latin;mso-hansi-theme-font:minor-latin&quot;&gt;Erweitern Sie das vorhandene&lt;br&gt;relationales Datenmodell so, dass es die oben genannten Anforderungen erfüllt&lt;br&gt;werden und dass es der dritten Normalform genügt. Kennzeichnen Sie die&lt;br&gt;Primärschlüssel mit PK und Fremdschlüssel mit FK, stellen Sie die Beziehungen&lt;br&gt;zwischen den Tabellen her und tragen Sie die Kardinalitäten ein.&lt;/span&gt;&lt;/p&gt;" style="text;html=1;align=left;verticalAlign=middle;resizable=0;points=[];autosize=1;strokeColor=none;fillColor=none;" parent="1" vertex="1">
                    <mxGeometry y="185" width="510" height="730" as="geometry"/>
                </mxCell>
                <mxCell id="3" value="" style="shape=image;verticalLabelPosition=bottom;labelBackgroundColor=default;verticalAlign=top;aspect=fixed;imageAspect=0;image=data:image/png,iVBORw0KGgoAAAANSUhEUgAAA7UAAAN/CAYAAAABKv/nAAAAAXNSR0IArs4c6QAAAARnQU1BAACxjwv8YQUAAAAJcEhZcwAAFxEAABcRAcom8z8AALBRSURBVHhe7N0HYBRFw8bx5+7SeyGhht6LgGCjiwoiVSyvFbFiB1SKiqhgwQKCIE3EXhBFEAtVegcRpPcOCek9ufbtXg5fUPFV0U8W/z8dL5md3dtLcus+N7OztoTbnm7ktdmftskWIwAAAAAALMArb6HXa3/JVqrns98agfZKfz0AAAAAAFaxzZbQc8gC44s2Q29sp/oVy5RUAwAAAABwlkrJylWv8dPklfb9FGq/GNBDzWtXKmkBAAAAAMBZ6mBqppr0G+0LtXZ/HQAAAAAAlkOoBQAAAABYFqEWAAAAAGBZhFoAAAAAgGURagEAAAAAlkWoBQAAAABYFqEWAAAAAGBZhFoAAAAAgGURagEAAAAAlkWoBQAAAABYFqEWAAAAAGBZhFoAAAAAgGURagEAAAAAlkWoBQAAAABYFqEWAAAAAGBZhFoAAAAAgGURagEAAAAAlkWoBQAAAABYFqEWAAAAAGBZhFoAAAAAgGURagEAAAAAlkWoBQAAAABYli2h55AFxmObLwb0UPPalUpqAQAAgLOc2+3Wjh079O233+ro0aMqKiryLwFwJsLDw1WnTh21bdtWFSpU8NeeXQ6mZqpJv9HySvsItQAAALAkM8R+9tlneuyxxxQdHa2yZcv6lwA4E9u3b1eNGjU0ZMgQtW7d2l97diHUAgAAwPIKCgo0Y8YMjR07Vn369FGXLl38SwCcieeee07btm3TvffeqzZt2vhrzy4nh1quqQUAAIBl2Ww2BQQEKCwszPdIoVDOvAQHB8vhcPjeX1ZAqAUAAICleb1eFRcX+78DcKZcLpfvfWUVZ93w47Vr1/qKOZzE4/FY5tMB4GxlHpCCgoJUpUoVXXrppb4L/wEAOBeY54tffvmlxo8fr759+zL8GPiLDB06VFu3blWvXr24pvbPGDZsmD788EPfEJKQkBDZ7XZLfUoAnE3M909hYaFycnJUt25dDR8+/KydwQ4AgD/qt0Ktef6478BRpWVk+2t+nXmWaXahOBx2JZVLVKn4GF898G9GqD1D5ux1S5cu1ZVXXuk7+TZ7agm1wJ9jXguRmZmpRYsWKS8vz/c//WrVqvmXAgBgbb8Val0ut6bMmK+Dh5IVFxflr/0lM9A6jbaZWTlq26KpLm5ar2QB8C9GqD1DvXv39t1n7IknnvD1LAH488wPhdLS0jRx4kQtX75cr7/+umrWrOlfCgCAtf1WqHU6Xfpk+nwFBzl0QaNaRs0vO0rMq9zM/1fm5uZryapNql+nmlpe3NC/FPj3slqoPesmijIPLIGBgb7hx+Z1gBQK5c8X871kXkNrzmBnvrcAAPi3MOOr3W5TeFioSsVFK7FU7K+UOKPEKC4m2vh/ZWDJigAs56yc/dicIMrpdPq/A3AmzNkg3W63/zsAAP5dzPNK418j4DrkcAT8othsdrncZhsjBvMBMGBJ3NIHAAAA5yyb8c+xY8e0bNkyzZs376cyd+5czZ8/X+vXb/DNO2GGWwDWZKl3b25egXbtPaRtO/f/dtl1QCmpGf61AAAA8G9j9rmal96Y/xw6dMgIsXM0ffoX+uKLL4zH6T89rlixQtnZOb47BtBP+wdl7tPetd/om2+MMnuZNh8vUL5/EfD/yVKh9sDhZE3/donmLV6rRcvXa+GvlEUr1httFmvlus3+tQAAAPBvVex0+nph4+LilJhY2iiJp5SoyEi5XC7fpTrMP/HHZK/+SG/17qounTqp0zW99MzXO7Wn2L/wL1KcfkwZufkqOHWOL+AUlgq1hUXFCg4K1MXn19GlzRqp5UX1TymtLm7gqy9fOk6FhX/xOwoAAACWk1+Qr5iYGLVq1UYdO3ZWp05dfI+dO3fRVR06qmGjxr7QW+w0zh0JtX/Acf344xatWOOS2+uVN2+3li7apn37Pf7lZy5v32bNevERTZy/UVtd/krgV1gq1JqHmbDQYCWVS1ClimVUqULpX5TKSaUVGx0lm52DEgAAwL+W/1TQ6XLJY4SusPBwRUZFn1RiFBEVpaCgEF8bX09tySr4PXLWaePmrVrjiFRwjcoybxiYvXiZtuw7rL9iesrCfWv01Qt36rkPlmnl8UAFMjk1foPlrog3D0ouj8c3W11QULDxB15STnxt3n7MbU5xBwAAgH+xkojqNgJrfn6BsrKyjZL5s5KlnNwcFRYVymvOfozfrWjjUm3euF05FS9Royse0qXVHArfP0urd+zTXn8bo5W8yQv0+egh6j/sFT03cphevv1+PXjXS3rvrac17Lleuv3223Xn3ffpwUf7q19/ozz5jj6eNF5fTH5Cz763SmuOHdfKSc9q8HOfatrGQv92gVNZLNTafBfxFxgHpg0bNmjx4iW+i/vNsnTpMt9jcvJx/6QA/2KFe7R56Ux9+P47enviGxo1cqRGmmX0eI1/6yvNWXf0DD9BK1JB1o9aPPUTvf/+d1qzN12MCAEAAGcbp9Ol5NQs7dp37LRl576j2nswRZnZuQTb3y1b2xb/oI078hRbrZWuufFadWtfXrFBO7RyzS59f8TfTMVS8kJ9Mf45vfLEYA1/Z5ZWpaTqeGqmcrLTlZlxXMfTM3Vo10rNHPGKXn3FKCNnaeHObHm9xtllmBTgkNx56UrPzFUeVxfiNKw1/NhIqmaozc3N05zZc/TBBx9oypQpvvLxxx/r00+naN++fXI4jL/+f+01EcbBOHOJZrzeV7f0uEv3DHhFEya9pbfeMsprgzTovl66/6n3NH1vttx/KIkaB5wjKTp6vMj4Ok8ZB6bopVtuVI8eT2vCgt0qKGn0F3IpJzVFh/elic/kAADAH2U3zgXLlo5Xqfh4OYJCT18CQxUcGq7yZRMVExPhXxun55EKftTS9Xu1NSdO1arU1lUtQtSsYzOVi3fo8MrvtWV9unlGajDOxx0hCo2KNE5Ro1X9/Fv06Nefasr0F/VA39EaNnyavpr+gSY+3lXNyxlNFa7SXduqw739df0NfXRbLSk8KFEXPPi6xrx6h25tGuLbKvBz1uqpNQ5O5g20i4uLFRAQoNDQUIWEhJxSXEZSMz+V+5f31UrFucZ/Kqna1S/os6/maM4co0zur4cvzde+2ZM18LlZ2pVe5D/g/C+pyls/SU8N+1DvzztufG8c/IPjVLpyRePgX1alIoP/4j8kj5z5C/Xua2M0YsRipfhrAQAAfi+Hw642zRrr1uva63ojKJ22dGmrG7peppuuaada1Sv618ZpefPk3PGdVu86rLSo5mrQqInqKUFRbdqqSZkE2Xau0KZNG3TM17jkNkk289LAoLqqVLexLvbVn2TbLM17Z5xmHDPO88v9Rw/1uFQdq0hFzhNnqcZZvd1uteGl+H9mrZ5ao5iB1uv1qlmz5ure/Rrf7HVm6dKlm666qrPiYuOVn59f0vjfymaXwwj9UoQiEyqqeuWyKlvWKG1uVbvO7dTYs0OH5s/Xgpxc5ZWs8RvSlLNukgb2e0Offr1FGV5z4HKoYivdome++EaLFr2kh6+oYdT8VcztL9WHTz6vl8bP1PdFToY2AwCAPyUoKFChocEKDfmNYi73twkwR/vhtxXk6sDixdpxMFsBDS9QvcaVjUrjxDukmiolhives0lbtm3SmmyzsVF/4pzcZvx8jd/HKeGjeKXmfvmuXpqRonxFqe71t6t146oy54Qqcrrk8k2T45XH5ZTzr5h9Cucsa4Vam803M53T+KuOiYtT2XIVVKZMWV8pW66c79Fmd6jICL7/+p5a3+v3yF2cr5y8E590lVV0uaoqb3wVlH1cR7xeBSlL2795TQNuvFZXd+2mrt1v1M23Pa/31h5WkZw6tvlTDXv4db01f5/y932raSMHasCY9/Vd1iYt+PJzffTBd1qzJ81oaSqU1o7TkIdu1LVXd1W3a2/Qg8M+NsKzb6Fhp5Z//Jz63jFYjw2erMlDbtBdN12j62++TQ+P/FLz04wDWMaP+vKpZzRy/EIdSt+sH+YPV597h+rtzTnK8G8FAAAA/4yivINasXiXjmZ45dz2iSb3766uXbuqS+f+Grtsv9KNM8i9O3Zo2QZ/t4TjxDm5Wx7jPP5k6Su/05xpC7UzP0qO827RYzc1VoNSJR8seIww+7PmwGlZriff7KUtKCz0zVaXkZGhjMzMkpJhPmYoLz/PF3z/9cxpoBWggNBoxYf7DybuzTry4zJtlEP5SbXVMDBde75+VYN6v6Q3F2UqqlpZVQwywur7r+n5YVM0c0uW7I4wRcbGKi48QAoOUbCxvfBQm4pSvtNHQ57WS6+8rS83phl/SMeVvnScXhj2qoZN36VkT5SCj63RNyOGasTri7S+yLwWN0XbFnyicW+/qOETpmp+aoAckWnaMec9jX5hjN6asVMZNoeCI2IVGxdhxPIQBQWGKDwiTMHGAZFhJwAAAP+kXOUdXaX5GzOV6i6nerUqq0mlcEVFRSk6vqpaXtVU9csHq3DHj/pxyQ7lm9ffBpQMQT6VUZ+8Ut9M+VLfrM9VbPUrdcewZ9TzgnBF+zvLY4Idio4IkNdunM+GRyuWTnT8BkvlBDOn5eYV6uDRVO07mKL9h39ZzPq0jByCrSPI+OWmK/XHr/XOJ5/r88+N8urzmjj1ex0oe5Wuvb2jWkbZlXcoX6G12+vmR+/VHZ3bqX2rBqpePscImos1a3meEmt3Ue8n26t+qWAptq2u6zdMg++8XpcEhCk6Msp4oijfvd5cGRu0eMIwPflVnsrdOtYIqO9rynuDdXeFHfru9eH6ZFO2cRg0DnhRsYqWV7Fly6tp73c1bsJYDbq+qWKOr9H6rxboUEwdtR/QS50alzH23zhYdh6gV199VDfVjjDWAwAAwD8mf68OLPxU83dmKi+ktTo/Mk7vvf2+3n/fKO+9p4nj++nGpqWk1OX6YdE3Wp7p8t0D2JmbJRUZgbjIf37uder4N6/ow+mrtMXpVbGnSJF5i/XpF9OMc9bpmr9+v9KjSqt2w8oKzD+mrXM/1ZSvVun7vb4xzcAvWCrUhoUGKzo6UkUuI9wWepRf5D2l5BV6ffXBIaGKif6Xz14XYE7edExHlr6loYMGauBAo0xcodWODrrukSf11gPNlRhbWbWv7qMhr96iliGz9MxNj+iRl+fqx1SnFBmqQN9wEbdcTrf5eZpxAPIYX5sDjV2+K1/N4eDGfxQUGKAjB45qzQ8pCgmIVLX4TO3ftVu7j+QookKI8rPW67t5aTpq/N6CAo3tKVZxSY11YXmHsY/xioiKUWllqSAzRUeMLTvNASe+KfW98rid/qHNAAAA+Edl5CvtcIHia1RUxWvb6fwaSf4FflEX6oKLL9XlSWVVKiRde1OkAntpVapZTxWrV1WlUv5ZWIxzyl3H3AqOTVKFihVVyrtJM594XIMGDDDOWZ/SqOnfa0d0LdXt2F2tG5aWa/k7mvjyx5q2KrlkfeBnLBVqKyWV1g3dLtP1XS/TNZ0vPW251XiTNbugvn+tfylngREPK6pKx0Ga/P4UTZ06VVO/+EpffTZKr/W6QGHmFfg6oMUTntKjN/TWk++lKuymZzXmqW5qUyVcKnSZ800ZPHK73CWjmY2vPb77AJlXOZzK1zFuzk1VeEhrRt2vezt3VMc7XtWIVV4FhgYqL+Wo8vNyfbdkMv/s7I5ABdpObOu/Q4uNZzKfUR7fE3qNY54ZggEAAPCPS2igC3t/rKlfz9W8V65Rh5o/H1hcTs3ueVmT58/RtNcf0tUVIxRe6Rrd//p0zfv2JT11TfWSZvZgNbhjlEZ9MU/fzZur2d98qWlTpujTT43z1akf6pW7W6thdLzKt+qv1z//Vt9+OU3TxvdRryt+FqIBP0uF2qDAQMXFRCk+9n+UuGiFh/118/FaktdlRMJwRSQ1VItLzlejRo3U6Lx6qlejnMpEmr/2Qnn3z9e8WdM17YdihTfuqRcGdle7S2soNsRhhGIzXvo25Ps0rSRkmtNP/fKqCB9juavIPEYlqu7V9+r+J5/UoKGvaeQH32jezA816a56qhLqUk6R2edbElbd/hntzOukzWBr9vyW/EEaz+cxw22J0zwjAAAA/j8FhSmyXA1Vr15TNcpEKiLIX/8Tu0LjyiqpRi1Vr2T21jrkCIpRQlI11aheXmVjg39qF1G6kirVMLZjlFq166p+Q+Nc1TxfbXSealWIU6TdOC8MMYJt1ZqqXe88nVe3spLiuU8tfp2lQi3+CDMKGsGxMFeZeSfi4cmKpbSdOphZaHydpPpNLlbDBLv2zp2jzfvzpZBQBfj+PEJkT4xRpNkN6w1ScFScURehMCP32vyx12Wk08QyMapZMdg3DLyo2jXqecutuuU/TZV0aLXWrd2u7PBIBRkHQiMd+9b5dWa4Nbt74xUZFqhQ4xkcIVGKLVkIAAAAAL9AqD0XeYpUkGPeACdLWflO/9DhnwuSEpupRYMkldJyLfpgqPq/8JIGjl2rA+lOY9WjOnYsWQUKV1B5I/AmGhs5tlSzPhyhj2fN1JLkAqVnZhs5NFvZ2TmKKldfl/fsqevOL9IPbw7Sk8+N1Yh7blWPu/rrmY+36MfjBUaM9shVkKUM45/MnEK5fPvlkTM/W5nGY2Z2rgqNUGtTdTWsHq+K2qMf53+g19+Zom+2FCiLi2sBAAAA/Ayh9lwUVFoV612iBg2aqkm1WAX86hToIbJV6KYePXvo3u41FZO2UF9Pma3tpa/WFVc1U8sLyqpMhBGOjZAZHNZSV1x9ma690KbMdZ/oo28Xa1NRJdVq3lpNGjVQjXi7Cm1VVan7YL35+A3qWmqTlnz8ht5adlwhHe9Vnxde1r3nxynK2FZ0lfPVvEEzXVS/vKJ8E1EFK65qQ13YoKEualhJ8UbQdShRjdu217Xd66hMwVpNe/uTklDLxbUAAAAAfsaW0HPIAuOxzRcDeqh57Uoltf+gPn36KDk5WYMGDVK9evX8tfhDPIXKy85RbpFdAWGRio0Ikv10F6Y685Sbk6OcAqdcHpvswebQYuNrt7FuaISiIoPlMIKmKy9NOflFyi92yxYcqrCIUCk3X8WeQIVGhysiJLDk2ldnttLTs31TtnttAQo0nj8qJkrhvmBdrIKcXGM1cxsRio4OVaDNo6LcLOXmFcsbZGwnNsKI22bTXOXkGm0LXcZ+ORQSk6hYYyMBXGD7h6WlpWnChAlasmSJRo0apZo1a/qXAABgbQUFBfryyy81fvx49e3bV126dPEvAXAmhg4dqq1bt6pXr15q3bq1v/bscjA1U036jTYviNxHT+25yB6i8JgElS4dr/jI3wi0pkAjSMaVUdnySUpKqqDyiTGKjU9QQmK8Ys1Aa7Yx1g+IML5PLKfyFZJULqGUYkLDFZOQoMTSMYo8EWhNgVGKK11BSRUrqWJSeZWNPxFoTUEKjYxTQukElYoxA61ZZ1dwRKziS5dWqROB1hQUoUhzv8oZ26pQVgkRBFoAAAAAv0SoBQAAAABYFqEWAAAAlmbeBz88PNz/HYAzFRIS4rvdplVwTS1wjuOaWgDAuaqwsNB3Te3rr7+u7t2769JLL/Xd/x7AmXnzzTeVnp6uBx54QK1atfLXnl1OvqaWUAuc4wi1AIBzVVFRkWbOnOmb1MYMs1WqVJHTyT0AgT/L7J0130s7duzwZbF+/fqpRYsW/qVnF0It8C9CqAUAnKvMnloz1L744otKSEhQgwYNfHUA/hxzKL8ZaletWqUKFSr4ZhVv2bKlf+nZhVAL/IsQagEA5yrzlj5mqB09erRuuukmtW/fXm63278UwB914jraMWPG6NixY7r//vsZfvxnmKH2+PHjGjx4sGrVquWvBfBnZWdna9y4cVq4cCGhFgBwTjlxn1rzw9uBAweqXbt2/iUAzsRLL72kjRs36p577rHEfWrPulDbu3dvHT582HdgqlOnjr8WwJ9hftpm9tROmjRJK1eu9H2STagFAJwrToTa8ePH+4ZJdunSxb8EwJkwr1PfunWrevXqRaj9M8yLkZcvX65OnTopKSnJd1Lu8Xj8SwH8EQEBAcrIyNCCBQuUk5OjsWPHqmrVqv6lAABYG6EW+HsQas/QkCFDNGXKFJUuXVqxsbE/zcAF4I8z3z/5+fm+0Q9mmDWHH1esWNG/FAAAayPUAn8PQu0Z6t+/vzZv3qybb75Z1apV89cC+LMyMzN9/8Pfv3+/L9TyvgIAnCsItcDfg1B7hh5++GHfcMnnn3+eHiXgL+ByuXw3pZ8zZ44v1DIBGwDgXEGoBf4eVgu1dn/dWcO8N5J5Em5e/wfgzGVlZfnu2WcORTYLAAAAcC4560ItAAAAAAC/F6EWAAAA/x7eIuVlpup4WrZynf66f4RbxQVZykzLVE6hV757fRTnGfuWopTkozpy6JAOnSiHjyo5I09Gs9/HXaSi7OPKyHfL5XWpKC9LaSnJOnbkpG0eOqwjx9KVVeD2r2TwFCovK0MZWcZz/fzmI54i5acdU/IxY7sFhcpOz1RuXqFc/sXAP4lQCwAAgH+JYunoNI3t202X/2eIXp2XaV6P9w85oHWfP6E+192n5+YUKNkI2J7V4/X6fVfoiivaqd2VV+rKE6X9Fep6/wsas8b3Cv6ntHUz9MmzvfTyvBQdcu7UgtEP66YrrlC79idt88r2andFL/UdtVAH/esp9Ru91f8O3d53gr5M1imBNWXJ+xp+w+W6uuejGr5std57/hm9PvYzLcj1NwD+QYRaAAAA/Ds4Xcpa843W7fheG5dt1fcLf1Cqf9GfVyxn/iJ9OOg+PT7sa8074q/+n/KVfmijvl+6RpuPulVkpGvv8S36fs0u7XLX1VV336t77/WXzjVUfvsEvfjUExq51KWM3+oeTV2iFQvnaNLOqmpcMUTRjlTtXLdAG7a7FdnyXt15Ypv33qRWZfZp8aTheva9zcovNHtsk7Xnh1VauX6XDhcY+1OyRWnTR/rgxdf0zuZI1bixm9pUqaQLzndr16ql+uz99cryNwP+KYRaAAAA/Au4VFS0WXM+2ylbg1aq2zxA+Utm6JtdRrz8+VDbP8SuwND9WvPZZH369Xbt/j1dqT4OBYZEKio2WhHBtpKT8oAgBUTVVK3mN+qh3g/qwQf95YVX9FzPFqq792299c4srT+S79vCLzl1cNFXWvZ9uqK79lW3RjGKdbjksQepTPUWanfPg+p7YpsPPqFhgzrpitDN+mzSLK3IzpUn1NifqBjFRIUqOEgKNDeZskgfjXhe47dGqsETr+nZ27rr8mqVdNGNd6lNxWxlLpii2YeMaP/PdXkDhFoAAAD8C3gyVbh3rj5dHaywetfo9nbh8hycpymzjyq78ESb4zq6Y4uWzFmplYunaNpnH+rrpYs1b8lCff7hh/rQX6Z8PkNfzpypBavXa+OR/Vr1xTodKg6RK3Otvl+4Rj8kG5vyb/KPsRn/uOQqzFHmSZe6ylZddbreo0eaxSnDCOLrjqX9+jBkzy4tXXZU+/Kr6eYu5Y0TffOuBx7f3UW87kLlZ506fDmqTiO1b1JajkNbtLagwAi/Ab4g61WwQswvCjfrh0mD9PLCYMXc8rgG3HOxKvvWNNgbqm2DUCW4VunT7zJV9LvDPPDXI9QCAADgnOfNTlHqd8u0Oaq+ytXsoutaN1HdynnasXiejuU5S4baFv+g5e+/qLuv66O+gx/T0y8M0bjPp+r9zz7RiCFDNGToUD334ksa9ODN+s811+n+4dO0YOduLfp4gTYfzVPynnla8PW3WrD/z4ba//L+vOczKlJlyiYqJOeYDmTnKc1f/V9eeQ8u0oZkj7LKNNXFCVKAf4m5MZsZWIOlIH+VT3a6DqfmyxMWrVKOANmMdh6vTYFhAbLnH9TG6aP01CfHFHLlID3Zq6suOWVlKaFqFYXa3NpphP7UItc/eH0y/u2sGWq9brlcThUXFaqwIF/5+WYpUH5BoYqcnv+nN5RHbmMfXC638eY3vjUPAsb3zuIiFRYa++LbJ6MUFKig0KmTP2z7n9zGdp0uuY3tes3X6ixWkbHNgpNea0FBkYpcJ71Sr0cet0tO3/788ifgdRUb+1WkYnO5x23sp/OMD7YAAABWkX/8uJau3qmw885X/SqlVenCZmrfpqGiNy3Tsoxs5fjbeQo260jeMWXUeF7PvzFdrz82QEP7P6l3ps/QjBkzNP3T9/RUx2pGwKymsrXa6aYmTXXb0B5qWT1GlRv31C3336Nb6puDi/9i0dEKqVRK8UrW8f35Sv/5iZxxzpi+crW2pRmvJKmqKvmrfWx24zyxUAVZ+co8cY6af0TLvvlOUzcUqfTFLdQmIlwOl0vFtkAFB+3T5uVvachTs/Vjmbt01x2ddFVF/7ZOEtywgWonRErrl2qpcc57ukHRwN/NgqE2SwXb3tXz916vDu2v0OVtL9Nll5mlrS5re4Xa9Zqoz9dl+tv+XYzAWbxY7w/ooQf6f6CvzNnh0vZo4bAb1LNze7W7/MQ+GcXYv8vb9dAzX+3UPv/avy1Zi0Y8peGjpmpZZpaSV43RgJu7/eK1tr28s9r3+1zL9/jHyxxbr2Wv36fb7h+tT39IPilEG0c893d666EbjP16UC9+tVobN32lSY8O1NtrUvS75zIAAACwrHQlH9+qVT/W0uXdm6lZTaPKdqHOu+Q8NXSs1qq1eTpinlIFmqfGQYovU0kXX9VJLS6po6rlK6hi+STVqFNbtWvVUuWjM7VwVynVuaafhtx9sRIiYlS6ZgWVCg9UeHQlI0+WUUKYOZD4L2YPlD0kUEG2YjkL3PrF3Yi8Xh3YeUB5HrtKVUo66STfrsCwaOUemKtPHrlM7U+co17WST2Hfq+0+jfrmQGXqWpkiFToUlCkU3tWfaspQ9/Q/N1pOrBhidbv2aXD/q2dIjxCESEFKk7frS0HnIRa/GMsGGqNN07Kei2aMVurj4UpsXlrtW5tlhZq3SpEaQsm6NVXpujLbb/zrlnuvdo6e4Jefm68pm3NVoa/+rd55HXv18Z5X+ibuRu1I9eoyTmuXUtn6PNVKVKZ8/37ZJSLz1PVjG/08ZB+enHKOu38rW7k4gLlrJyoj5bv1eZi4+AYmKWcvcs1e8ZCbXaWV5VWJ17rJbqoUb52TxmhF0bP0jIjVKvwmA6v/lpffLNaW47l/dQL68nZqK+GvaDnP9ujolLVVKdsnGKibIrUJn3y5hyt3J7ubwkAAHCOSt2hPQs/0exN6zV33CD1u+M23XbbXerz6udatHubvvt4gbYfNSKZI9A4xwtWaEi0ypUO+Nk9WLPkXDRcj/b/UOsrX6mb7rxaLZLMC0+LVZhjnJ+6vXK7ClT4dyW7glx5UnKU6YlXdLkQGadzv5BX6JTdHqCwMCNV/8Qrj9upgLDSSmrYWq1OnKO2vlI3PPSYBg+6W9fViJbN7Fo2XkOgI1eZyUUqiLxaj7/0lO4qu0xfDRmkMd9s++VM0fZYhSVEKt5bqOIs789+XsD/HwuGWuMdbA9TRFRFNenygPq9OkzDhpnlFQ17abSGdbQpZdGnmvj1dmX71/hNjhQdXP6+Rr/6nuYcMS/N/51swQqPiVdsTLhCzYOAzStHVGlFNe6mOwa85t8no7w2XuNGDlTb/Pn6csI7mrr2dL3I5o2xN2n+mDlKrn65LvtPS9WNKDa2G6LohNpqdduTevqlE691hEaOHqrBFxzV6hmfacrqDBWGhik0Kl7xsZEKC7KXDHnJPaSV772sl0buU+x1/TTqjQG6/qJaqly5uTrdeZ0qbf9UKxZv1a4C3w4AAACckzK3rNb3321U8flNFed1Ki85Vampx+WOLqeaDcopZ9U0rdx0TAXecAXajRDocau42HXSpVoFytn0ud587W3NDr9aNz9yi7rXi/Yv+60ei7+O53iG9m/YoVR7KVUoG6GE390VbITtwlyFlblEVz42TK+cOEcd9oKGDr5d1zUv7x8qbbxa43y2uMCmqNKt1an/i+rfr7+eefoWNT42R5+88o4+2/nzk0a77A6HL1D85T3TwB9gwVDrZ7zpXEV5yi3yf+9TW5e2baLzE1J0aNP6n4bWOo9t1ZaVi7VgwQItXLREK9bt0OF8r/EWL1T6rl3aujdftsACHV2zWBuPZCv3Tx2bzNnqjP+6ipSfe+rduiIue1wP3tJMSckrtPCbraeZrS5NOYcW65ONVVSvQQO1rWZWGvvoNbfqlrMgVzkn75frAnW4sp6qO/Zq77Y9yrQ75LWZ08Eb7YPCZPdkaOe0MRo9ao6Ot7pXTz/WWReXP3G4iVd4+Ut1dZ1t+nHjRi3YxedqAADgXJWmbZs2aE1KbV05+H29M+NLzfz6a3399Vf68ov3NXlIVzUP3aaV6/Zpd5pNoQHG+dwpCc2lnKOz9dXbn+rdtLa669Undd95ZXVyX6h5Kx2XywiFjmCFhPqr/iSvGRQDQxT+0yxPpnwdXPWdPlyxV4E1m6hebIwi/EtOFhoUYARylwoLT0zn7Ge8IK+7WEa2/eWw5ZN5jVBbFKZyderokkvijQqbyl39hB55tI0Sdk7XGy9/pe0nz1DlTlPusQwdtwUpIML234mpgP9n1g21xpvMbgS5gFPePV7l5xWqwGU3jimhCva65S1M0XejHtEjPW/VXXffrTuNx1tuflAvzNmtI65kbZ47W1O/2qbkzO1aOO5VTVm8Vwf++7Hcn2AEUc8vN1ChUnmVszuVfuTgr15b6806qvQVa7Sxan1VTKqspBP1vv8agdnhkOPkA6y9UHm5hSryBiggKMj/CZvZLlDBtmKlrXtHb4+fqnUJt+qh4XfosqpRvhYnBIYEq3K1JCVv+1E7Nh34YxNZAQAAWIQrfYl+WHtQOxwXqEWzECWccu5YWjG1mql5pTztX7ZSa9YfVJHdK6dvwk6H2VUgFW3QvIkj9NoHRxXX8W61KZ2vvOMpSklOVkpalnKKjcCocIUEeuXKSdaxw5nKKvg9E5eWDAs2J+8087CvvcctjzNPeelHtf9wspKN5/CVVe9r5tQPNNvRVM1vvFlNy8eU7NvJjOCaVLW8QmxupR48dNLzm5ObFhuvyXgul68/9vR8E5Qa7fwTlpZ0e5RVizt76q7LPDrw+Yu6b/QybTpmbM/ckLNQhc4wBUVVVo2KATrDPA/8aRYOtWYvpjk8xP+tzyJN/2adNuZUUe1mrVTOmaKi717T69/ZFNJpgN586y2Nffo+tY9er5kffa1VW6NVr2MXXd+5rsrG1dal9z+m/7Sqoop/+U/Fq5gK5VQuwKuMlEPaa9T8/ICSdyxFK5eulyMhUXGlEvy1/2UG5f+u41RxznxNmbldh4Lrqf551RTrdvmmard7nQpZP0FvvP6OPiq6UNc896Rurhz3y0/zwsJU+ZKLVDlln/ZsNYKtvxoAAOBccnDuXM3bsF+uhq3UJsLuuw/ryYKj66v1haUVsPZrfbd8hX4MDjHyoU0Ou/8ur2tna8XcJVqTslUr3rxTvbq1U7vLLtflV1yhLvcN1bgNQXIGXK5WTcsqaMObev3JIXphVqqKfzM9noYjWJG2vdo77yX1uvIKXWE8h6/cMlhvHW+u20dO1gv/Ka/Kkb+ItEaotavUxU1VMy5S7gP7fjaxU0n7X1nrF8w25nmn222ewZawJ3bQDTfcoNuS1mvBuEd034R12m5eUbdzq7al5MnbsJlaRYT+rPca+P9jwVBrky3ALkdAlrbMeElPdu2szp3N0lGdO92rQcsS1fi6nurbPkHBjkgF1LxSD7w4XK8+f7/atm6t9p0aqWKQV2l7jyojJ1RxFeuqYd1ERYYmqtolbdSoXJQifs87/g+yGyEy1PhpFxfmK8/4/tRP7zzKztivrbvzlJhYSbFxJf2u5msNCHLI6zqklRMfU+9OJ16rUa57Sq/sP1/dbr9JtzQJU4DTvI42X85j8/X2qHf05ucbtf/YUe3bfvjXe2EdgQqPjVa0se1DBw9pl7lTAAAA55joutfojief17A+rVUx0N/7ehJ7RCU1unOYho/so1vad9IV1wzUqyP76aY6oTLHudnKX6puj03SpMnj9HLfG9Tz1h7q0bOnehrl5s5tdGEZu0JCSqvF/a/o+VFP66nbLlWrGsa52f88nyyn8zoM0DPjX9BDrUJUKsDYl8Y9dM8Lb2ri8Cf04O0lz+ErDwzWo088pX4da6tWtHEa59/CqeyyV2mthol2RR1Zq9VG6Cy55K2+2j80QsNevU831j3p3rW/YJyoxrXVf554RcMH36IrSp38POGKb3G3Hhk5SW8+d7dua1FOpcLytW3ZKu0+JlVu2VZlgwOt3FsGi7Pm354vEdoVEBKhyNg4xcWZpZTi4luq+/39NODhq9S0tNHEEaqAisabLne5Zo54Wo8PfEa9Hx2paQc8codHKTzQ/AjNCJn5Trk9ThXmZPkC51/PJldmprKN/Q6PipVxjPjZAdWrYlem8guDFB4eaxwY/dU/cSgoLEpRvtdpljIqm3SlevTvr8dub6Za5hHX45Dd2EZx+i6tcbZSywcf0q0Nj2juoKf17JTtyi0+NUabhzRPfJxiozwKyCv82bXJAAAA54a4Bm11Vfdr1blRqZIZfn8uIEQRda5Q59uuU/uLW+iiBpep69WX6fzEAJmnZLbKl6hZtzt15+136p4HH1GfRx7RI/7y0K2d1CZJCjK2G1W/vTrcfr/uv72zOtaPOPWysV8VrXJ1L1eH/3RS6+oBCjfOym3lm+rCTnfojnseUO+TnueRPg/olivqq4J/zdNy1FaLixJUMWi7Pvwm2TeE2Bw+XKfV1erSrYWalDldIDYZOxxWQ+e366ZuVzZVrYifBYXIJFW+9E7ddfdduuuySioTskkLNuQpM6iJrm2boMAgfzvgH2DBUOuV121eGxCl2lf10eAP39W7754ob2rcwI5qXrnkXeUpOKI904eq38AXNPydr7Rw0Upt3F4gR6xx/Ao2tvTznPe3cenA9r3akWVTTOmKqm7U/NoP/sSx77/75ZWr2C1bQDldcPtzevm9E6/zHb3z9ut644HmqhHv35LXLafLCLYxFdWyVz8Nefl1vfzENWobtUITXxinqd/n6dQpA4z1wkIVHBCgoP+/HwQAAMA5rShltzbNm6rPpk7V1NOV6Su08UDm77/rxu8WrKqXttfFDSN1eNoYzduYrazfnBnqT/Kka+/MT7UuI0lJHa/RVVWNZ/6fIR74+1gw1J5QcnF98W+8UYuSj2rh1HnaHNJG9w2fqRUrZujzUXerbawR5JxOGXHRaOXxTdvuMX4UAcEhxqHgDNkDFBj8s8vkc1do9rwN2lyQoMp1qqqcv/pkdnuwHA4jmDqLfNcwnMort7NYv9mZ6i2WyxGtgNLtdOXF8TKOLSrT4nYNfrqtLkj7QKPemafZ+0+emr5YOnxEx7OLlBsU6PuEEQAAAGcme+cKzRrzpJ568kk9+atlkJ4c+pG+/eHIb5/b/Vll26lF67bqkbBa323P07G/4daNbtcxrZlzTDF1LlC325v5RiEC/yRrhlqvefG6Wy6Xyyj+ul/jm77ciK4pKUorNBumKXX3XM39sUiZOWaQNCOe3Xg0fgy+ac6zles2Qu7v6rg0Q7Xb2I8TEziZsx4b3xcX+G7pU1xcXFIyD2nzOyM0ZfkRRTRvr46davpan8qhyIiKqlDGq7Tj+5X1061szcmwzNdqvk6j/NYUxV7z+Y3wa86G7Htdphqqf8X9euyqWGV93l8j3p2lpblmgDcZ7YudKnQnKr50vMpH+ioBAABwBmIadtAtr3ymTz/7TJ/9apmqz957TD1aVfmbZgu2qfSF3XXr4LF65IpSqhTur/4L2QOr6PJ+L6jfw9frilh/JfAPsmCoNYcfGwE0P18FRSXTjZ9OUGJptb62rWp5lmty/6vV6rJ+GvjBcVWvHaLg7MPak2LeaKu6KtRuoCqZKzR94H/Uf/wGrT35/lun5VJxYZ4KCop907DLFiBbYYaK13+sEY9co8svv7ykXNVdNz69U5G3D9GLz9ysjkk/n3OvRFRiGTVrWkOZGSnKTM/21xqv1VWogrwCFTpPhNHTMKdgL8pTXp6xT0Un2tqkspeo7YN91bHUfq155UE9+eLHmm9eOFxUrOMbN2lvdEVVrlFX9SzcZw8AAHC2CIyIV5ka56nBeefpvNOVepVUNib07zsRD45QZNlqSooNVMjfMBrPZjMnW62o0qWifNcdA/80R3ijS3saj5VvaNFQFUvFlNT+g2bNmuULZq1atVJiYqK/9mTm7MeRiirfQBe0vFhNqicq9jRHBHug+YarqjLlklShXKJKlamvRi076MbuF6tBg/PVuGFVVSkVp4j4MqpQtrTKJZVV5XrN1LBanEr9z3HIQQqNrKZ6l7TSRY0qqVx4oEJjS6t6XSMgVy6nxNJlVa5cOWObVVWz2XW6rfdt6lwl9rSfyNmD3QoMOKrZHyWrTOMaalgnUcFyyBEYp4Sq5+uSlheqQfko/doM7j7msOfYJFVp3FwtL6yppJiQkmt0bXYFl66pKhUrqUqlCqpas6HqNaiqUnnbtGDsSM0NuVKXXn2V2iRxdf+5qqCgQOvWrdOBAwfUoUMHxcebN1MHAMD6zJFs27dv19q1a3XJJZeoVq1a/iUAzsTixYuVmpqqpk2bqnLlyv7as0t2fqEmzl1tfplpS+g5ZIHxRZsvBvRQ89qVzMp/VJ8+fXw3mR40aJDq1avnr/03KFBO8neadP2rWtfuQd12/zV/43COImXv+ED9bnhD2Z1f0EO9r1SzOP8inHPS0tI0YcIELVmyRKNGjVLNmr82BB4AAOsxP7j98ssvNX78ePXt21ddunTxLwFwJoYOHaqtW7eqV69eat26tb/27HIwNVNN+o2WV9rHoNNTFCh11watX7ZMy05XVnyvdbvSVPSXT1cXqsjIC9X9ziQVbV6ib2fuVMrfMVudoTB9vX6cu1S7yl2j1m1r6wICLQAAAACLItSexFO8V4vGDVb/227Tbacrdz+uxyatVWruXz8Ju0ITVOn6h9Ux8qgKvv9Wy05cWvuXKtaxTZu1cHaqGve4Wi0vqahfv8oXAAAAAM5+hNqT2AIq6OKeA/X0G2/ojdOVkYM15JZGigv/O666N0pIE13d7yk9cm8nXfS3zEgcoMS67XX908+rd8daqhnEnwAAAAAA6yLRnMRmj1L5BpeoRfv2an+6cnlztaxfWqGBp5ux6UzZFF29vmrUrqpyf8vcTXaFlaqgGk3OU5IRzOmlBQAAAGBlhFoAAAAAgGURagEAAAAAlkWoBQAAAABYFqEWAAAAAGBZhFoAAAAAgGURagEAAAAAlkWoBQAAAABYFqEWAAAAAGBZhFoAAAAAgGURagEAAAAAlkWoBQAAAABYFqEWAAAA57SCo1u06tM39f4HC7Upt0guf71PUbbS1n+lqd8s15o9uf5KAFZCqAUAAMA5LWvrAk0ZcI/uvOtxvbzooI6dnGrzUrR/xvMaMOw9fboq1V8JwEoItQAAADjHBSo4XHIWf68Z7yzR2h0uefxLZDP+tTvkcNhlN74GYD2EWgAAAJzTbMYpryPWiLaxwXJ+9Yamz1mudSd6a2022RwBCgwwgi2pFrAkQi0AAADObe5CuULKKKpGV11VZqc2fjJJn3yzS05z2a8FWU+2vKtHaeCdRvv27dX+yk7qdMcTGvJtqnKLjOWFy/TFqCF6tu9AvTl2gK7udpXaX9VN1w+br6/mLNXqEdery5VXqkOXa3TTy3O0YG/JZkv8oC+evVc3XWVst/1V6nrXII1eI+X7lwL44ywYavNVfOg7fTbhVb343nKtPeqv/skRbZw9RR+//Y1Wp6vkYAUAAIB/L69Txe5whVdqpv8M6KZ6OQs0/925WpFnLLM5FGDzlrRTgFEKlLZrpiYMHqevtrvkTUpSxVJ5Klg9TePHTtei1Fx5vfu1Ze5bennkZI2bm67Y+NJKcm/Syg+e0bMjPtZnu+JVNjFO4Xu/NcLvGL07b7OOG1suztmmFe+8rNHTtmqvkpSUZJd71wy9+fJETduYoUzfPgD4oywYanNVuOcLTXi2n554dLjeXXTIOPScbK9WfDJar7/4oeYnS+aHaQAAAPg3s8lTnC9bULBqdH9Id91QTVGbZ+vNrw4rMyhAtmCj+HKt2WvrUrFLyq58kwa8/rlmTJqkNyc/pQEXBqp4/QKtzsyWJzBSsREBckfWUHzrxzTprbc16Y1eujp0hX7Ydlw514zThPfe0Qf9r9KFOT9q45ZNOqZCpW+fp/eGrZe740CNmDFJkybN1MdPX6u6m1/RR3N+1JYccx8A/FGWHH5sCwxTWHi0lPqdls2foflZbv8Sk12BwSEKCQ1WoHnhv78WAAAA/2I2t1wuh5xFDdX6ttvUrvw+LRo/SVP2ZChPDoU4zEbmGL9Ila7VTXcO/I8uCt6jnVu2aPNXy7Rgc6oUEGi0s8srtwoLw5RUs57ad6xlrihFRCs4opqqVq2iRvXNCqdC4kopPCZW9sBgBStZ2Vu/1w9ZZZRUNk+527doi7HtLZmJqhR/XFtW/6i9u0652RCA38mCodb8GC1Q9oByirNnatOq6Ro/fo3yfzoG2H59BjuPS86CfOXl5SkvP18FhS7jcOTn8cjtcqrYZRzsigpVmJ+n/IIi43tzXjyPUVeg/Lx8X53T/dNceX7Gur7lxnbzClTg/PlyAAAAnBWM8ziP2zhBrNhNl3asowr7ZmrcsLnaf7hAgaFBRgMz2XqVvXeh3ulzs269ppu6d+2qns+8rc/2hMlrD1SQL/yabLI7HAoKNM8GDR7jHNVmnIMGBCjAPMP2GGeaZpXdLptRZ/cUyHv8gI4W/KDZw/vr/mu7qmvX7rq133BN2RmszMx8BRTTVQv8GZbsqfUaBw2vN0D1L2+mholH9P0H4zV6hTkw+ZdKXmC2fvhoqB7rcIUuv/xyo7TXlVc9rvGrdivLWFq4bZGmDr1VNw8eqRfv66m+HY027W7QPYMnanbWN3r9kR66xliv3ZU36r4hn2u1sc6J6Jq65B2Nuv3Edjuqfd9PtGgHl/oDAACcfdzGeaTZExKrxv/prp7tI5Q640N9tvm49rtDFBISIhVv0f4v39PbS70qdeOD6vfii3q6/63qeUm8HDavnJ7/dmB4ja9dxuZ8I5e95vmpUYy6n5r468wKr80IzVEJig2uoxY9HtKAF17Uiy++oJdGjNabn87QzFf+o8vqhPlXBPBHWDTUuo1jg0vhjW/SLV0vV3PXd5r8/gLtLjD7XoP810RItgCjGO1yFrym4e/M1sL8mmrb9jK1ubCc3Bun6IP352vJYaNh/jFt/WqKPntjvL7KTFTZ1m3VIPaI1rzxkoY98rl+jK+li9vWU6mcZZo+/l29Pe+4ss2LdTd/qklj3tOn2yLVsG1btWpeRkULxmrUhBmat8e3CwAAADirlJwohpW/XNfc1F03Vd6iBT8cVPIxlxFqjeDpPqbsHRu1W4mq3OFe3XXttep0gXHuuHuPXMappj3Abt4F6I9xOuWyJSqidmPVD81TUeRFatH9Wl177TW6ukuCilcv0LIf03SsONi/AoA/wpKh1ncw8niU462mpp3v0l3dayloyWh9suCgUReoqBPHA+OAY35Q5vHGqt7VfTX4/bf1/PPP6cWRD+jqBi7tX7FLW5KlwNBghYQFKS6qoi654wk98szzevXRq9U0eJ9WzQ5T8zuf1tPPv64nelygSsV79MNyI9Tmp2v3V2M1Z2+cavX7WOOef14vvTpJH90UqP1Lv9X7C/cxSRUAAMBZwOMsUF5WujJyCo1g6u/9UKziG12pW+5urIiUfHl3pCi/qFgKqKz4xo1U27lc3w4doIEjxujVt77R3AyXCtMOKeVYsQoKnCrKzVRGZq58fSomT6HxHJnKzM5Xoa+n1nie4lxlZxh1uTnKU4Ti67TVDXcmKnXKq3r8vhEaMeIZPXb3g7pz6FQt3XJcuUUn9g3AH2HRUGvyyluQJVVuoIuuv143lFqtj8d/rq92p6gwOFQOc7nTvI4hQNEtb1LP9jVUIXWhFiz4VjM/naalBwtUHBKusABjS65iuUJjFNios66sEmUccqRCZ5jiaicqttkFauj7NM4uryNGiQnBiohwyu3epuUbjYNfYJhC8zZo4YIFxrYX6pAjXN6UHdr2w1odNFcDAADAPyq4VGXVufgyXdooSTFhP10UK0WVV+Xu96tnlyt0QcuaqhRr1AVWU4Wr7lavzg1V6fACzXr3Y22y1dQVTzyorm2rKaHYrmJnGVVt2kKtm9VXlXBfP4oUUlG1L2qplhfUVJKvg8U4yUysr6ZtmqtZnTIyBxaHxDdRx0GP686mLqWveFfvvvuF5m2IV70HXtDrj1yqi8v/0S5gACYLh1qTW/leKaZGM914dWNFfP+m3v5msRalBCnUYZct0HiBXreKV7yhV/r20PW33q277+6nRx6fr+3OQgUkBspufpLm+1DMOIj4jiMln5CVXAthTjplfmPWeUsebA7ZbS7jMUVpuV4d3Dhb01/oZWzX3PbD6vXWZqW57Cof41GGuQkAAAD8o2LO7677hk/Rh4OuVO2y5oRQJ4Qrquz16vf+VM3+sLduvCjOVxuV1Fp3jJuhabPnaM6cL/TaoKf12D1PauJ7w/Rg87KKib5Y3Z4ar8ljeuuaciV3t1V8R939yiRNeukOdYgxvrcbMfbi3nru/Tc0pldb1TTb+M432+j2V97VtDnmto3y9Qf67KkrVLWUceIK4E+xeKg18qY5xjespip36697muRoz7yvNW/JPgUFB8v4V0VFOzX7oy8092BlNb1rrN56a4ImjOylKyvGKqKgUP+dON1IrB633L7kWvL9iQv7Pb6gW1K8XuM7r3kvs0SVirAp6bwrdfWgN43tvmWUycbBbqqmzXhTr/S6TP4J3gEAAPAPMm+pExoZrejwYAWccnsMU6BCo6IVGx2mkMATp8YOBUXGKjYhUYmlExUbGaGwoFBFRkcqPMghuz1QweFRiooMU/CJVezGc0QYdRGh/jrjeQLDFGGsExkaVBJ8fey+bccnllbp0qWVmGA8T+hJvccA/jDLh1qbr0c1UPaqzXTz4Ft1UWay9u/eqh1BQb5eVo87Q/v3HNf+3ATVaH6FWrdurrblD2vXsRwdywtUoDmZlG9Lv5cZfEPkcNRWs4aJCnPmKj+kjlq1bm1su5WaFi3VrA+n6uu1x//gdgEAAAAAf5QFQ61HXmeestLTlZlbpGJ/rflS4pv0Us/zK6i8crUhPcc3Q3FwUEVd3LKmyufM0UfP3quBg5/SgFHblVOQq4LMg0o+bmzBU6z8rDSlZRWo2FXSU+spLlBuplGXXSinb0IBr5wF2b7nTc8qlscRp6qdHlD7Khna/uqNumfgQA3s97Bu6DFUby3boWNez3/vgwsAAAAA+FtYMNSGKDCxsdp07aJ2TSur7Ek3wJaqqMV1N+uBW9rp6ksbqUaIEWoDy6vpf+7QQ7dcoOruH7V41WFtKnOTHrz7Nt1/ZVVVCHHLHldFDS67VtdcWkflY0oGh4SUra2m7a5V95bVVCrCfBKHEmq1UNsuHXV53XCFmZdj1L1Odz3UUzfULdKWxYu1eNk6ZVS7WQ+9/Kwe6VZX5uUUAAAAAIC/jy2h55AFxmObLwb0UPPalUpq/0F9+vRRcnKyBg0apHr16vlrf8brlsvsUbXb5TAnhPJXl/DI43LLiKrGMnNSJ7POa9Q55TTrvXbZA4IUbHeXTPxkD5DD5pHbbXxvBFdze751zJ5Wf12A+RxGnXl/XLfZa2s329n8z2u0Ky5Wscu8qbbNd41FUHCA9cd145yRlpamCRMmaMmSJRo1apRq1iyZqgIAAKsrKCjQl19+qfHjx6tv377q0qWLfwmAMzF06FBt3bpVvXr1UuvWrf21Z5eDqZlq0m+0OfPRPmtmL5sRNAMDSsKmv+q/zNBqXit7ItCajLBpBtmQUIWZ96QNNAKpwwizAUYxfwI2IwD71vEHWtNJdSdusG0zwmzJ854ItCajXVCIQsPCjG2HKoRACwAAAAD/b8hfAAAAAADLItQCAAAAACyLUAsAAAAAsCxCLQAAAADAsgi1AAAAAADLItQCAAAAACyLUAsAAAAAsCxCLQAAAADAsgi1AAAAAADLItQCAAAAACyLUAsAAAAAsCxCLQAAAADAsgi1AAAAAADLItQCAAAAACyLUAsAAAAAsCxCLQAAAADAsgi1AAAAAADLItQCAAAAACyLUAsAAAAAsCxCLQAAAADAsgi1AAAAAADLItQCAAAAACyLUAsAAAAAsCxCLQAAAADAsgi1AAAAAADLItQCAADg3FaQrtQDO7Rlf7ryij1GhUd5x/dp345dOpglubxGVf5RHdy9RzsOZarItxIAqyDUAgAA4Jzm2bNQs97or/tHLtSOZKdRU6ytX72m1wYO1thVUrbLqNr1scY9+7wef3Olkn1rAbAKQi0AAADOabbyTXTJdQ9pwI1NVDEuwKgJVJUWN+mmB3vp2vpSuMOoqtBe19x9hx7s1kDxvrUAWAWhFgAAAOc0W0wlVWt6mTpcWEnxvgTrUHyNi3RR29ZqUk4KNs+I4+qpScvmurRxeYX71gJgFYRaAAAAAIBlWTDUuuV2HtGO1au1YftRpZtVhRlK3blGyzbs17Es86IIKS9ll7auXqkfDxUqt6QKAAAAAHCOsWCoLVJRzjJNGfK83vhopbaYVenb9eOUF/T4G7O0ck++r9XR7z/X+88/o/ELM3S40FcFAAAAADjHWDDUBis4sqVufHawHr6lmeqZVfG11fDGp/TKw1fpkmphvlblml6nnoOf0wNt41Qh1FcFAAAAADjHWDDUOuQILKPqTZqofo3SijWrgmMUV+18XVQ/SaWjzBntpLBSVVWzSVPVLRdcMqMdAAAAAOCcw0RRAAAAAADLItQCAAAAACyLUAsAAAAAsCxCLQAAAADAsgi1AAAAAADLItQCAAAAACyLUAsAAADLCwgoua0jgDNnt1srJhJqAQAAYHnFxcW+R7fbTaFQ/mTxeDy+Yn5tJbaEnkMWGI9tvhjQQ81rVyqp/Qf16dNHycnJGjRokOrVq+evBfBnpaWlacKECVqyZIlGjRqlmjVr+pcAAGBthYWF+vLLLzVy5Ei1adNGl19+ufLy8vxLAfxRDodDXq9XH330ke+DooceekitWrXyLz27HEzNVJN+o+WV9hFqgXMcoRYAcK4qKirSV199paeeekrHjx9XZGSk5XqYgLOJzWbzhdqsrCxfmB0wYICaN2/uX3p2IdQC/yKEWgDAucrsqZ05c6ZefvllnXfeeapbt67vpBzAmZk7d67Cw8PVu3dvtWzZ0l97diHUAv8ihFoAwLmqoKDAN/x44sSJvt5acwgygDM3YsQIrVu3Tvfcc49at27trz27nBxqz8qJoszZ68LCwvzfATgT5qdsQUFBfHINADinuVwu/1cAzpTV3k9nZU/tvn37fF3dtWrV8tcC+LMyMjL0/vvva/369RozZoxq1KjhXwIAgLWZPbXTp0/3jUS666671LFjR9/1gADOzCuvvKIDBw74Joo6W0dAnNXDjx999FFNmzbNN/Q4Njb2p4uVAfxx5vvH/B/+9u3bfe+nyZMnq1q1av6lAABYmzk764wZMzR48GBFRUWpTp06TBQF/AXWrFnjO2d8/PHH1aJFC3/t2eWsDrWPPPKIvvvuO98nAmXLlvWdlJv3SgLwx5lD+c3Z61atWiWn06lJkyYRagEA5wzzHNH84Hb27NnKzMxUaGgonSHAX8DsFKlevbouvfRSVahQwV97djnrJ4oyu7rNcFu7dm1fHQcn4M8x7zWWmpqqd99913ex/+jRoxl+DAA4p5gf2pon4GavLeeMwF/DbrcrODjY90GReT55NjqrQ615LW16erqee+45Var0z+8PYHXm/+TNMDtv3jxmPwYAAMA54awPtWZP7WOPPea7LgLAmTE/JHr77be1du1aX7gl1AIAAMDqzupQ279/f1+PUvPmzVWmTBluQwKcAXPoSHZ2tu9if/O9NH78eFWtWtW/FAAAALCmszrUmsMjP/roI9/Y7cDAQEItcAbM9495rVFRUZHOO+8837B+cwI2AAAAwMrO6lC7c+dO7dixQ4WFhVzsD/wFzPdRUFCQL8yawTYkJMS/BAAAALCmszrUAgAAAADwW04OtXZ/HQAAAAAAlkOoBQAAAABYFqEWAAAAAGBZhFoAAAAAgGURagEAAAAAlkWoBQAAAABYFqEWAAAAAGBZhFoAAAAAgGURagEAAAAAlkWoBQAAAABYFqEWAAAAAGBZhFoAAAAAgGURagEAAAAAlkWoBQAAAABYFqEWAAAAAGBZhFoAAAAAgGURagEAAAAAlkWoBQAAAABYFqEWAAAAAGBZhFoAAAAAgGURagEAAAAAlkWoBQAAAABYFqEWAAAAAGBZhFoAAAAAgGURagEAAAAAlkWoBQAAAABYFqEWAAAAAGBZhFoAAAAAgGURagEAAAAAlkWoBQAAAABYFqEWAAAAAGBZhFoAAAAAgGURagEAAAAAlkWoBQAAAABYFqEWAAAAAGBZhFoAAAAAgGURagEAAAAAlkWoBQAAAABYFqEWAAAAAGBZhFoAAAAAgGURagEAAAAAlkWoBQAAAABYFqEWAAAAAGBZhFoAAAAAgGURagEAAAAAlkWoBQAAAABYFqEWAAAAAGBZhFoAAAAAgGURagEAAAAAlkWoBQAAAABYFqEWAAAAAGBZhFoAAAAAgGURagEAAAAAlkWoBQAAAABYFqEWAAAAAGBZhFoAAAAAgGURagEAAAAAlkWoBQAAAABYFqEWAAAAAGBZhFoAAAAAgGURagEAAAAAlkWoBQAAAABYFqEWAAAAAGBZhFoAAAAAgGURagEAAAAAlkWoBQAAAABYFqEWAAAAAGBZhFoAAAAAgGURagEAAAAAlkWoBQAAAABYFqEWAAAAAGBZhFoAAAAAgGURagEAAAAAlkWoBQAAAABYFqEWAAAAAGBZhFoAAAAAgGURagEAAAAAlkWoBQAAAABYFqEWAAAAAGBZhFoAAAAAgGURagEAAAAAlkWoBQAAAABYFqEWAAAAAGBZhFoAAAAAgGURagEAAAAAlkWoBQAAAABYFqEWAAAAAGBZhFoAAAAAgGURagEAAAAAlkWoBQAAAABYFqEWAAAAAGBZhFoAAAAAgGURagEAAAAAlkWoBQAAAABYFqEWAAAAAGBZhFoAAAAAgGURagEAAAAAlkWoBQAAAABYFqEWAAAAAGBZhFoAAAAAgGURagEAAAAAlkWoBQAAAABYFqEWAAAAAGBZhFoAAAAAgGURagEAAAAAlkWoBQAAAABYFqEWAAAAAGBZhFoAAAAAgGURagEAAAAAlkWoBQAAAABYFqEWAAAAAGBZhFoAAAAAgGURagEAAAAAlkWoBQAAAABYFqEWAAAAAGBZhFoAAAAAgGURagEAAAAAlkWoBQAAAABYFqEWAAAAAGBZhFoAAAAAgGURagEAAAAAlkWoBQAAAABYFqEWAAAAAGBZhFoAAAAAgGURagEAAAAAlkWoBQAAAABYFqEWAAAAAGBZhFoAAAAAgGURagEAAAAAlkWoBQAAAABYFqEWAAAAAGBZhFoAAAAAgGURagEAAAAAlkWoBQAAAABYFqEWAAAAAGBZhFoAAAAAgGURagEAAAAAlkWoBQAAAABYFqEWAAAAAGBZhFoAAAAAgGURagEAAAAAlkWoBQAAAABYFqEWAAAAAGBZhFoAAAAAgGURagEAAAAAlkWoBQAAAABYFqEWAAAAAGBZhFoAAAAAgGURagEAAAAAlkWoBQAAAABYFqEWAAAAAGBZhFoAAAAAgGURagEAAAAAlkWoBQAAAABYFqEWAAAAAGBZhFoAAAAAgGURagEAAAAAlkWoBQAAAABYFqEWAAAAAGBZhFoAAAAAgGURagEAAAAAlkWoBQAAAABYFqEWAAAAAGBZhFoAAAAAgGURagEAAAAAlkWoBQAAAABYFqEWAAAAAGBZhFoAAAAAgGURagEAAAAAlkWoBQAAAABYFqEWAAAAAGBZhFoAAAAAgGURagEAAAAAlkWoBQAAAABYFqEWAAAAAGBZhFoAAAAAgGURagEAAAAAlkWoBQAAAABYli2h55AFxmObLwb0UPPalUpq/0HLly/XkiVLlJWVJZfL5a8F8GfZ7XaFhISobt266tChgyIjI/1LAAAAAGs6mJqpJv1GyyvtO+tC7aOPPqq3335bSUlJioiI8NcC+LOcTqcOHjyoatWq6b333lPVqlX9SwAAAABrOqtD7cMPP6wjR47o8ccfV7169fy1AP6stLQ0vfnmm75REGPGjFHNmjX9SwAAAABrOqtDbe/evX0n4c8++6yvZwnAmcnPz9cbb7yh7777TqNGjSLUAgAAwPJODrVn3URRNptNbrdbhYWF/hoAZ6KgoMA3BBkAAAA4FzH7MQAAAADAsiwVarNz8rRp2x6t/3FnSdn0K8Vff/jocf9aAAAAAIBzlaVC7YHDyfp63gotX7NRa9Zv0ervN/+sbNGaH7Zo1vyVWv3DVv9aAAAAAIBzlaVCbbHTpYiwULW8qIHatWmqy1o0PqVc3rKx2rduqsoVEuUsdvvXAgAAAACcqywVam1GCQkOVGKpWJUtHa8yib8sZUvHKSIiXDauFgYAAACAc57Fop9NHq9Xbo9bdrtDgYGBCggI8JeSrz0er1E8vgAMAAAAADi3Wa4/0263Kz+vQGvWrNGcOXO1YMFCX5k/f74WLlyoo0eTfbcFAgAAAACc+6w1/NjIqmaozc3N84XYTz75RJ9//rmvTJ06VdOmfa79+/fL4XCUNP63SdmgJXOma7rxczB/JtNmzNTcFVt10OVfbvLmKOvQRq34bp7mz/5aX06fVvIznDZD07/+TgtWH1DWWXk5slcqPKw9PywxfvdrtG53ptxGFQAAAIB/N2v11BpB1e12y+l0KiI8QqVKlVJcXLyvxMfHKzY23tesuNgp279pALK7SIV752j5+D66/b5H9XC/gRo4cKAee+Au3XNnX7309TZtzTeamW09O7X16yG6o2tXdbz+Tt3fp5+v7cDHHlTv225Qtztf1jtL9iiv+GxLjMbeH/9G7z99izp26qMB721S0clhHQAAAMC/krV6ao3iNAKr1+tV8+bN1b37terUqbOvdO3aTR07dvYF2/x8I8H9izKta9N0ffjknbp18i5FdXldr7471ddzPenZ+3WZ+zt90vdaPTphs9ZnGY3tbrnyUpWSW6SistfokRff9rWdOvk5vdI9RgU7P9LQZz/RV9+nlmz8bOIpUkFOhooKs5Wd7/RXAgAAAPg3s9jwY5tvkijz1j5h4ZGKjYtXTGysvxhfx8Sag1SN5f+intqitVowc5Je/Py4DpTvoafu6ajrWzRSo0aN1LbHQ3rgyTvUNG2zFo54SVNX7VGuLUJBAUEKDY6SStdSowtb+do2anOzOtx5h64tl6e0xTM1e9teHfQ/xVnDFqDAkDDjMUQhQQ5/JQAAAIB/M8tNFGX20hYUFCorO0uZmZlGMR/9X2dlKi8/zzdE+d+ieOsCfTd3qXYHNFTzbvfo8hr+BabAODXs2FM9LquoiEPfasUP+5XiCpHDbpPdZsR/V4FyszP9jQPkqdJEjeLCFe05qMM56UrzL/lf8rZ+p69e7adHH7pX99//kPoOeFKvz9mnnfn+Bqb93+ij1waoz4P36t4HeqvPE8P1wuc7lF1wYpizS3nHF+rDQY+pzwP36d77eqtv/5f15oz1OuJbboRYrqEFAAAA8DOWCrVmoM3OLdC+Qynate+Ydh/4ZTHrU1Kz5HL/Oy64TPlhh/ZsL1RglYpq3LSSPD/7jdq90apeK1qxkfk6cihbR1JLAq3X7MkOCFNkdIy/pVP23au0LiVLWbaKSoqKV4J/yel5pOM/as6kZzR4+Pv6YlOaDu9boWkvv6DeDz2rMXP2K0NGcN49XZ8PfVQPvzxds7ekK3Pvai2e9KQGDR2hd5emyIzVWTtnaPLgAer//BQt2XtUGakrNGfy83p88FhNXp+sYpeRaAMs9xkMAAAAgL+ZpVJCRESoSifEyx4QLLctUF570CnFYwvy1cfERish/kRYO7elpGcpLd342YTHqXQZ7y9zn8frC/geb77SUwuVkW6XzeGQQ0boz9iudcvmadWqVVo1+21Nn/iuPs8qq0rtuqtDnSoq79/E6bmlH9/T1/OWaH34Jbrsnhc0aPjrerV3F10edUh5h/crXYXKO7JRsw+XVp0r79cjA5/QY/d0V+e6bgXv+FCTFh3SjgIpe9c2bd0UqHq39VG//o+pf5/uuqJhiNI2LtMnkzcpt8gpBTPkGAAAAMCpLBVqK1Uooxuvvlw3GOX6Lm1PW3pcd6WaXdDAv9a5zW6z+e5e5PV65PHYfnWErrncvMLYawRco5nkCFawJ1/a+YmGP3GPbr75Zt1831ANmu1R3KX9NfaFnurUuGQm6f8pMFghERHS7m/04SM36/bhu1Xu1pc14cOJGnJjU1VRtOLPv0dPjJ6oyV2Oa9dbvXRTvzf01nq3io19cdg8KjJ2pUzzu/TEpFF68V6vFg/uq7vueEOffp8hhQb49hsAAAAAfo2lQm2Aw6HwsBBFhIf+zxIcFOhf69xWJjFOiQlSTnaqDh+WXD+/nNhu9wVfkzno2MdTrGJbqFSls+7uP0yjRo3SqDGTNOGDDzXj5dt05fmlFBxYss5vC5AaXq0WF16g2ipWwbE12vzuU3qwz0N6cMB7mrbquPEHlqOcndM1bnA/9X7uXa0Mu0Ldej2gmxoGKSzQ7Hm1KzhMStvwtd4fMFADnvhQc8I7quddN+imi0tJTo8cAb9nXwAAAAD8G3GRosWVOr+OatSNlHvfAX2/aps5ndIpnJ7j2vxjhtJzzWtrS6lqeY88TpdcNiP0JzZR207Xq2PHjup4VXtd2fZiXVIz+g/8URhhM6qJuj02Wu99+qHef+sFvXxXlPYsnatvpw/XC5Oma/JX67Vp2hh9+PGXmm3rorZ3P6ZBt1yqy6s7FOSwyeU1Qm3Obm2eN0mvzJiv+anN9YB5z9y+7dW0WqQvpXvpqAUAAABwGoRaiwuocZnadWirxoHfa+WUEZq4IE0F/mUqOKJVH72uSfOPqqB2T13drq5qxObJZQ5TNpOiM0/ZmSdmP/4TvC7l/DBDs+Ys08b4C9TmjsfVb8wEvftIS9WOzNHR7dv13focHdq0U4XhUvzFt6hjsxhFpa3S/DX5yi22KSg4QIEZ+3T06AFlqIIqNu6kmy8rJffe77VmbbLxFxokW4DD7BMGAAAAgF8g1FpdQD0169hLT93RQI1yp+rJ517Ta299ra+//lofjHheI16Zpt11WuvqgX10dePyCvbmqqg4V9lF2VJekVzuM+gG9XpUuH+1Fr7RX33u6qE7n5+lb2dnKDI+TJGlyyjp/IvVrlkdlTuvqcoZf2nH57+jqZPf0BsfT9enm6Tigmxlpqcr056opGq1VDH0sI4u/VCj3v5Er778tRavy5I8mcpKzVCGx2M8n1PF+TnGY67yCl3c4QcAAAAAofacULO9uj41WR890kZ1Uj7SxOd7q3fv3nr6zZnaXukG9Ro1RS/dUll1w4y2nlCFxCapWqUaKlMxTuEhZzCjsD1Q8R2e1KAh/dSn7iFtevMhPdS7rx6YvE0ZjR9Tv7uv141tqun8259UjzYNVD9nlqY8P1zjFuWqdPvL1bhqLcUWpys3pJ5adLlLg66tpjKFi/Xhc09q/LpIRTVpoma141TOkafjHrcUGKvE8kabspVUMSGMP14AAAAAsiX0HLLAeGzzxYAeal67UkntP6hPnz5KTk7WoEGDVK9ePX8tfpecA9qx/7iy8s1b+Bi/XEeAQqLLqkL1coo7MdeSt0D56ck6mFwgV0iCKpaLVeSZBFuTK0sZh/ZpX2qhis2JqhzBCk2sqiploxTpm6+rWJn79yk5M0e5RR7ZwiIUERkqW36h3OGJKls2TtGOfOUd26+9qQUqNHthQ+MVE+qR3eWW29jPckmxilC2jh86ppTcQIWVKqNKieGyM4fU/5SWlqYJEyZoyZIlvknBatas6V8CAAAAWNPB1Ew16TfaHL25j1ALnOMItQAAADjXnBxqGcGJX3V02Sd65+mH9fDDpyv99cjz07T8QJbMW98CAAAAwD+BUItfVZR+SAe2/qgffzxd2aRN248oPd/pXwMAAAAA/v8RavGrKnV6RIM+nqu5c09XZuqbt+9Xx1ql+CMCAAAA8I8hj+BX2Wx22R0BCgg4XXEowGE32vlXAAAAAIB/AKEWAAAAAGBZhFoAAAAAgGWddaHW4/H4hrdGRkb6awCciaioKAUHB8vr9foKAAAAcC456+5T269fP23dulU9e/ZU9erV/bUA/qzMzExNmzZNe/bs0ciRI3lfAQAAwPJOvk/tWRdqn332WX366acqU6aMYmNjZbPZ6F0C/iTz/ZOfn6/Dhw+rcuXKev3111WxYkX/UgAAAMCazupQ279/fy1btkzt2rVTUlKS76TcHJIM4I8zh/KbPbWLFy9WXl6exo4dq6pVq/qXAgAAANZ0Vofa3r1769ChQxowYIDq1KlDTy1wBux2u1JTUzV58mStXLlSo0ePVs2aNf1LAQAAAGs6q0Ntnz59dPz4cQ0ePFi1atXy1wL4s7KzszVu3DgtXLhQo0aNItQCAADA8k4OtWflLX3M4cYul8v/HYAz4XQ65Xa7/d8BAAAA5xbuUwsAAAAAsCxCLQAAAADAsgi1AAAAAADLItQCAAAAACyLUAsAAAAAsCxCLQAAAADAsiwfar3OXGWmJCs52V9SMpVT7PUvPcGlovxcZaWnKfXktkZJSc1SbqHH3+4k7nxlp6ac1DZVmflO/bEbo3jl9RQqPztLOXnFcpq75XaqMCdDmWmpOn7KfqfoeHqOCn6+66fllTPH2Pf8ImO7HrmLjNeXka604ylK+Wmfjdd3PEMZ+SfttatIhbnZysoplNPz8ycrVn5GmlKMn2FusVPFhfnKzc41agEAAADg7GTxULtfaz4fql7t2qndT+VODf5ouXb7W5jhT9qgb17vq1vbt1f79ie3Ncu9enT0Ih0uaex3WBtnvayHrji53VW656XPtCDP3+R3yVfmkal67Y7r9eDLi7U814iNuxZqyqPt1fXKk7ddUjpe+7BGLEvRMf/av6U4e4M+f+IRDf9wmbbnHdb2mU+rZ4dfbrPdVTep+7NztDu1JNi6t3+tT5+6Qzc/+oGWHDV26Ce5St/3voZcc7WxzrN6//tN+n7BuxrTf4g+2FGsTH8rAAAAADibWDfUFizXFy/11hMTNiq98S266ZZbdItZLizQ7vcf1t0DxmnKDskjm9E4TXvXztHqDdlyNLlF/znR9pZuahq9U/MnDtfQD7Yor8gMwPu09L0XNfSFedoYf4Wuvcnf9uqK8q55WyOeeluzk6Ui3078Ly4V5+3Rj4vma/mGo0pxGfuTvk9b1qzRkuQENWp7nX8/jNLhQtVO+VxvPd5Pw7/dqQP+LfyqrH3aN2usPtobKmdUkuKDjuvollVasWqfiut0UPufXl8XXd4kR7vfe0mDJ63URiOZ2gsPas+6Rfpu5U4dzTd2yC97x2xNHjRCEzeH6bzWF+m8sokqWyFIIa5t+mTMbG1NOTkAAwAAAMDZwZKh1uM+pi1Txmjsu5uVVuk2DRzeTwP69VM/s7z6hO6qla+9H47V6E8267DLDG4hCg4KUpkardTxwX564kTbfs/q1ac76fKQjfpkwrdamZUrT/FGLf7wSy08UEHtnn9FTw3wt33mFd1dv1AHP35ZY+YcVlphyb78NpvsjlBFxMYpJjJYQUa+ttltCogtrTIX/Uf39x/k3w+jvPiqXhzcSxccnaYpkz/XvC2nC5EFSt+/QrPe2qTAq27UVVfUUNnAIrlsEUqo2Fht737ypNc3VK88dZ/uq7ZN30z9SvO258oVGaXwqFjFRYcqOCDAt0XPwSX6YvjLmjgrSm0HD9XwYTeoeaXyqtSggzp0a67E9W9q/tpUHfp9SR4AAAAA/t9YMNQ6VZyyXJ+8tUQHK9yk2/rcoMvi/ItMUS3U5YE+ur+JS/u/+VjLj+XLpSAF2u3yuouUn3VqL2tM3cbq0LSMAg5t1pqCfLndTqMEKiQuVgmx/kY+VXRxt9vVq8fFqurNl+2/nZx/kM34xyNvcZ6yM08eyxyl8p36694uVeTYukyrlh369et3nfu0b8d6zTzcVB0urqx65mt3eWUzArPXU3K9bkZJSx9baFO1v6yS4jK3ae+hNBU4Ao3nN9rbA2UPCpXy9mjh6Bc14evjKnfPQA25q6kSAv0rq5wqVD5P7Spt1LxlO7Tp6B+7ohgAAAAA/m7WC7XeNBVtW661h8JVql5dnVfHX3+ymvVU+7xyijyyViu25Rshz6FAhxn8HAoIkoL9zXxys5ScUSB3cLhiHEFGCKyhuvUSFHH0e339wXf6fvMO7dyzT0ey3AprdrsefGmyXru5msqE+9f/07zyen82UZPx26hYsbwSCnN07PhRpfqrT+Y5tEOHNmzTvkYXqG50nKL99b5Lh212BQQGn/r6PJlKSclTUUCEwkKCZPcagdoWoICAAAXmHtCOmS9p7Bd75b6yv54Y0kV1gs3h2v8VHhOlchXL6dDa5Tqw//gfnCgLAAAAAP5e1gu1hfly7T2gY/lxiqoUp3KnJDi/wDKKrRSrUoXHdGiPUzluI+w5bL6ezOI843unU05fSdWaOQs1dV2e4pterJZhkUb8ra32N/1Ht7dI1+pxd+k/V3dWx/aX65YXZurr/ebGzSHFdl/P6F/O2G6lpPKKc+YqOT1ZR/zVJ0vdvVffb9ipmKSKiggP8dcazP3xulVckKvcn15fsvbs/EYfzkmXvdrFalg9QWHOYnmNZO/IP6bcucP0zOg5+r7mtbp9QA9dFmD2Iv9MmdKqdn5Dldu9QRsP7NMhfzUAAAAAnA2sF2o9bnkLjcDmMYJZSICC/NWnMpc5FOQ12hV65TZeZmBYtHIPztMnj16mDpddpst8paN6PL1Sh2veoMFPXKlaUQFGqAtSRJNbdMfQsfrgjaEa9NhDah+zXxvHP6SHr22nm/qP15fHzSmg/gZ2I3yHBivQCKdFziL98rLdIiUf268DR+1KSqqqkPATEdSuoPAAFaZu0FdP3aibf3p9nXXtvR/qy8hrNeChzrqiSoBU6FCoLVkpW6dp2LAv9O26fdq7a7u2rNn365NfBQQrLDJYIYV7tPtAmo7+LS8cAAAAAP4c64XaoCDZE6MVGZhthLj809xqJksFxrIsR6SiEh0KsXvkdrmMoBun0jXOV+Pzz9f5vtJcne58WE8Mulc31Y2Xf94kI8glqFS9K3T19Tfrtnse1DOvTdIr/W/WlfFHtP7jkRoz/jttzvob7t7q8iorLU15gSGKjYxVvL/6v1wqKs6T0xWi8IjI/+6vwev2yh4YoYRq9VX/p9fXQpd2uFePP9tbt7erqIQgyeNxyFGYrNysA9pR4S7d8/zDuj52rT588mUNm33qjY1KhMqWGK9SoW7Zc5zK/5Vb+gIAAADAP8V6oTYwVkG1G6pmdIpSthzU7l+78DRjv45uOaqUqJo6r64REG1uFeTlKqxsM3V8fKRGjxypkb4yQq+8cK9uubSifPnQ41LetoWas3C11hz4b2iNb3Gbbn9ymCY8e5+6ljmitZ/P0rb0Av/Sv1KONmzco32uCJUtVU7l/bW/5tSrcT0qLnArOLa22vQeoVdPen3Dhz2mgV2rKczhb+o1grE7QpGVL1WPJwbqqUdf1POPtVUD5yyNfv4tfb1LP7tu1iZbYKACbHbZf3YJMAAAAAD806wXahWl4CqtdWWr0vJun6tvp+9V6im9hxk6+PUMfbU2S8Hnd1CrKmGKkDlc2Sav26miPHP+5NPwOpX3/Zt6+cnH1Pu1eTpw8uTEhsL8NBUqRsEJZRUdeCIl/lFec+5h2QKCFRp26mxTObvmaPrc3UqOrqZatcvql3NRORQYECKHo1hFhQVyn5Q+S2Y/dqs4P8eIxr/BU6zigLKKTLpU7c9zGD+bMFXv9oCeebi+quycpOffXq5lx/1tfQrkOXJMyQVeFYcH6GfzSAEAAADAP8qCoVYKDK+rbg/fqitKrdXCd0dpzLwMHc/IUIZZFk7U+Hc/1xxvQ11+w9WqF2lOplQkp6tk8iSXEQRPO4OvI0jxF7XURfH7teGL8Xr87U06lOLfbsZSzVy0TIsPV1D91q1UO/p3Tn/sdcttPq/LI1/29hr/ugpVlJOm5COH/Ns2yrZFWjB2jL49GqlG3TqpTYuyvtVPFaxSpSqoTKkiHTm0z5wzy88rj9tV8vqMF/ibMxSb++Ny+fbnp59EQCO17Hyv7m/u1K5JD2r4lCVak1dcEv69xnYLPXI6kpRUIVqJJw15BgAAAIB/miVDrRSikHo91Hf4M+rVaKdm9LpM7U5MjnTnJ/q+2oN6btILGnhFiCJ88/kagdJjhDm38fibQ2gdclS5Xg++NExDrnHph2euU8f2JyZd6qlnV5ZT08HjNPLOBqrw0yRNv8XslfUaz+uS23hi3x18HMEKLspW7tLReuyOTv5tG+WaezXgy1i1fHWsXr7/Ul0Q8Wu/GpsSq1XW+fUrK+XwQRXknZjaydi27/UZ5X8NETZ2wmvsj8sM+cbPo4RNjpoddOUDD+gK+3rNf/ZuPffWIq03F6Ud1/6Nm3W4Un01TKqsivTUAgAAADiLOMIbXdrTeKx8Q4uGqlgqpqT2HzRr1izl5eWpVatWSkxM9Nf+mlBFJZ6netUTlRgZrXK16qpuXaNc0F5dbumh6xtVUOxPUyMb4bZULTVs1krNmlRRUuRvpHlbqCITjABXN0kV4uJVtmZt1TG3W/cCtbzqRt14bWPVi3XI/rvCnV2OgBglVmmqi1pfovOrxyk2LFJxleuo8UUXql7d2qpVu07Jfje8UM063aJbb7tc50cGKdC/hZ9zRDiVl3FIS6elqUanRqqWGKFAW7BCY6qoVtMWanFRXVWLCTr1XrUnC4pQdOXzdH7z5rq4nvEzCvYPo7YHKSKplmpWr6V69evqvEZNVbdKgrRjvr6ePFWba9+na69qrDpxf3bYNf4pBQUFWrdunQ4cOKAOHTooPv6XU5ABAAAAVpKdX6iJc1ebX2baEnoOWWB80eaLAT3UvHYls/If1adPHyUnJ2vQoEGqV6+evxb/laOja6fqrd7vakevV9W32wVqHOVf9JdL09aZI/R4/6Wq+tRkPdi9mqqedGtcWENaWpomTJigJUuWaNSoUapZs6Z/CQAAAGBNB1Mz1aTfaHmlfRYdfvzPchWmaOeyOZozc6Zmnq7MXqEV29P/x3DnPyNSZStdrE63llbyV19p7qIDSvnNi2j/LJcyds7VqsW7lH3BHbqqRTyBFgAAAMBZh1D7JxRmbtHc0U/r6b591fd05ckxGjdrj366bPWvlFBbNa++X10DNitl1w/a9jfcMtec9Xjfqp3aeSBSHR7qroYV//mh6QAAAADwcww//hPcxVlK3r1XKbnO098eyBGpqNLlVbNcpO92O389p7L27VN2cJzxPPGK/ss/nnArN+WYMnLcCq9SUbHG9pkjypoYfgwAAIBzDcOPz5AjKFrl6jRSowsu0AWnK+fXVq3yf1egNQUqunINJZX9OwKtyaGIxPJKqlZRcQRaAAAAAGcpQi0AAAAAwLIItQAAAAAAyyLUAgAAAAAsi1ALAAAAALAsQi0AAAAAwLIItQAAAAAAyyLUAgAAAAAsi1ALAAAAALAsQi0AAAAAwLIItQAAAAAAyyLUAgAAAAAsi1ALAAAAALAsQi0AAAAAwLIItQAAAAAAyyLUAgAAAAAsi1ALAAAAALAsQi0AAAAAwLIsGGoL5Uxdr0VffqLJb47VGyNHaqSvjNLI0RP0zsL9OpTvb/r/pPDYDq2bM1WfLdqh5GyXv/Z0spS5Z6m+/ewrLdqeqnSvvxoAAAAA8IdZMNRmq2DHx3q17726t/8LemXSZE2ebJaJmjzycT369Gsa9/VBpRT6m/8/yNrwtd7qf5Nuff4bbTr8P57Ye1iHFo/RoPsGavisXdpHqAUAAACAP82CodYrr8sjtyta9boO1AszZ2v2bLPM1Kx3HtRVeR/qg/GT9eFmj7/9388RGq1S5auoSplohQb+jh+ptyTJeu0OBTAAHAAAAAD+NGtGKpsRBgNDFZ1QQZWqlFXZsmapqnItu6lttUg5jm7W1n25/sZ/v5jzu+q+0TP0+dCuapgU4q89DZvN2P1ABQYZxWHzVwIAAAAA/gwL9xMagdBml8P/nU/+ER0+blNQqbKqWj3IXyk510zQ6D7d1a1zZ3Xp1lN3PPOttheULEtb/onG3ddZnY1lvtL1Wv3n5lt16z1P68l3NqjQ3+GbtmiiXr+3u7qY27i6p256dan2ZpT0uBYc3a61s6Zo6oJtSs52++qUsk4rx9yu6/3bvbrHSH24Ot1YECZ7QLAC5VHkjg809vG7jeXddPVNj6r35E3KLjJXLtS2WZM09sn71X/YUN1/3bW6pnMXdf9Pbz33wQodMlp4XTn68b0n9djTo/X+0hRzJWO1VO2f8YKeHDBCby4+Krl3ae8Xo9T3/uF69ukeeqCXsS9duuua+4Zo2Jx0Ffx0+e8B7Zz7qh68rqu6dOmqznc9oyf6PqRnXhypcYszVfz/1+kNAAAAAH+IBUOt2dNpl92Ro93fTdLIxwZq4ECz9NWAXkP1bWhndX3gbt3UMETy5Mi7baYmDHtLH6w7KndcnCIKk/XDJ8P04nsLtSPZqcCgUIVHxynOWBYXX0ZJccnaOP0DffD2LK13Bsrr8ah485ea+Po7+mRFqsKMdmHeA1ox+WWN+mi5tmUbu3Rglb6d+Jxe+HCN9qUbobZgs1a/O0GvvrNMe2LiFG2sk7t0oka8/LqmLDqogACvvO5Ufb9kq5KTQ4zndip3y1S9NfI1TVqQrOMem9I3z9KHL4zTqDFf6wdHqCLjQpSxZpomDR+nt5YfU35erg4tek9vvjdD8zdnlvxonFlKWfGJ3nlrmr790QjQnuNKWTZZr48bpuem7tI+p/EaQ44ref6bGjFykj7flqM8Y7W0VZ/q/Tfe1qcbpdDwKMWlLtA3k8fo+THT9fWPuXJz3S8AAACAs5Q1Q62vk9aprMNbtWHJIi1aZJYVWrw7TZ6EiooLC5HXDJu5x7Rv5muauKWaGj3yqWa++64+mvm6XumSowUTP9fMH44ouGlX9Rj2rt41lr37zhgN7dlCzZs0V6ued+nhG+sqqPiIfvzoOU0/VEONn5qmT4x2n0x/XeOa7dOsz77SF5sKZI+MUKQRXuNjIhQUFCTn1s/17pRFWpHwgF5//119YG77hU5qEpOhbQfSjaBcLJfcOhxzpW7sP9p47jc16rEmqnXoK32y9KgOeoIVHRUiR3CEylbvqv5vv6933v1UI+9rqrgjSzVjxj7lF3gVFhuv2JhIhYf4+6vNYdlh0YqJjVKEry5QjkC7YqJDVLHD03pyuLEfU4yA2zlB3jWf65vtacpyJ2vtZzP1zY8JunzoR/r44/f17ogb1bFptIJt4cZ2uOgXAAAAwNnLgonFI485UZQzWvW7PaGXvpmnefPMMlvzZg/XdbnvaMJjQ/Ta4jxlZ6Rq2fe75alaURU8+dq1e7d27z+soMo1FbfnB63bs0d7/VuVipV74C09//R0bSt1vXr0vUPtI7xyF2zSwjXHZC9dUaUjMrTb3MbWDJWpUV72Qz/qx837dDAw2AjadjmMHGm3FejIms36sTBEVS+4WOf7t17uP89rzBsva+B/qslZbFQ4yqhFl0tUo5a5NMDYflmVNbYTbvxGzI5Rd2GRgipUV7X2nXVRgNlGCouJUenSdgUGnLgW1wz4RvF/V+LkOpecrkiFhjdR5641VCPWXBxiPFcZlQ4OUbgRrAOSl2vTNiPclqqvSy4KL1mv6pW6uFED1Ykoksfr9e0PAAAAAJyNLNwNZ1dAaJSi48MVHm6WaIVHXqXrrqihyu7N+mHVQu0sTtGewwXKXPmBJvbvrs5XXaWrOt+tu4cv1v6iZOXku5ThLNlazt5vNaHPG5oT2FVdevXQDXUdRsArlNNzRAePu7Rn6dua+HA3dTS20bHbnbplwvc6cuy4sRe5OmYEWpscctg8xuMRHT18XHneBJWtmKTAE9ej2gIVFBys4KBAf4VdwcFGmPWlSCOke23G18Y2jIqfIquRkh3BQXL4t+Ex25hDr0tWKplE2QywZte1z8lfn2D8im1BxnP5t2t+IGDU2R3Gcxtx1X7kgI4nS8748qqUZG7BFKLAwEAF2omzAAAAAM5uFg61XnlcRSo65bawgUosm6iEiGLlZxSp2B6tmLhgRddvp053PqmnBg3SoEHP6dkRb+vTbyZr6DXnq7aRMZ37V2rmqOc1Yd/5uu7uO9Xz0hiF+7fnlbGNcLvKnddBne4z1zfK4Gf11MgP9PmM0XqyYw1VyCmQ2+P2hUWv4hQTHaFAW7ayMzJKul1PYQRK36NXbpdbHl9gNRr9Wo+o1+yVdv10TavXbHNSI6+53AjUdvuJ4cdmb7ERfE/5rZrbdsvlNNr+9L1/O0YA9sbGKjzKK0deltKN3fVPc2XGY/9XAAAAAHD2snRPbaDZU3vKHXQOaOXS9dqQHK24ao1VLbaM2jQqI29+hOJb/Uc33Xqrbr35P/pPhePavXKn9hTYFZCzUYvfH6t311VQx2ee01PX11DiTxMnBygiqI4urh+hAFuUSl90o24xtnHLzTeqc8J+bV+/WbtSbQo1b81jM0K2xwiJ3lhValJDVW2p2rz6e+05MT3z7ul6/9URGvX+Ch01e3YDToTbP84MpHYjuSZEhCj08AEdSE2XL9uHZmvbj0eVdrxQAf/rBrhG0PUa++GucInqVAtTyOGNWv2DSmaTTlumjdu3aUdesOw/DWUGAAAAgLOPBUOtkeg8BcrLPqxNCz7W2yPHauxYs7yusWMe11MzchTUqItuvKyKEmNK67x2t6pdwHLNG3W3njTbPfew7r2zt577ZLk2ph3Spu/e1KgR72vOLo88e77SWxPG+bf3oT6evVnHgyvrwmvvVFPPUs0feo9eMZaNeekp3XlLP708bYm2pBXK7XWqIDtTGZl5KnY6Fdqoo66/tIEq7p6kp8aM1WhjnVf6D9Xoz1doR0aRiorzlJOZrZxCl0ruqmNeI2zUZWQqu8Dtq3MX5io7M8v3vcfsVfXX5WRlKj2rUI7QMFVqc4nqao+Wf/CyBo2doDEj3tR3e7N1JE8qLDa3Ymw/P1sZGTnKN3uFfVtxyVmQo6z0DOUUeVUQXEMXdGql5mX3afarz+iV18Zo7LgvtXRbuhxGMDZnfwYAAACAs5UjvNGlPY3Hyje0aKiKpWJKav9Bs2bNUl5enlq1aqXExER/7cmcchuBdsvuNKUe368D69ZozRqzrNOatckqrHWr+vTrqdsvipBsoVKF89W01F7tWb1Q38412m3aq2NRLXXjKy/qoVZBSl2yVEu3Fio4IlP71q/RylWr/dvbryPecrq4fWNVqtFcdYN36+Ca+fpi4Rqt3bhDqWHtddeox3V3yyRFJhvbP5SiwkqXqmOLWipXuoZqVY1UTOpCTZu6zLe9DWlV1OLB/nri3osVd3SPth8MNkLpFWpWr7RK2YqVm7pP+3Z5Vap5F7VuGq/ggz9ob2akylzSQe3Pi1VYgJR3aJN2ZwYopv7lurpVRUVULSV3WrIOb92kDWvWa9c+p+q3u0ghpRuocdPGal3Lrsyd+7WtqJIu7NxSTctGK9SbpfT9B7Uvq5TqXdFeTYz9rFirspLC0rT+m6+15PsftCakqWq5UxUXHK2Qi7ur83nhCrRwn/6/XUFBgdatW6cDBw6oQ4cOio+P9y8BAAAArCk7v1AT5642v8y0JfQcssD4os0XA3qoee1KZuU/qk+fPkpOTvZdu1qvXj1/7ck88joLlJ2Tr8KiYrlcJ64VNdnlCItVfEyYgk8M+zU5c5SVka2cImNd2eQIilB0QozC7W4V5WQpO89p9pXK5TzRm2kKUGBopOJKRcg3Grm4ZBvZxWYLm+yBkYotHa0wm+QtLvAF8UJ7uKIjQhRoDkc2wrczO03Hs4wQbq5vD1VUfJyiQ+zyFGYrK9cle3ikwkMDjWfyyFWcp7zsYnlDoxURbiTYgizl5htrhkYpKrRkQil3gfEaCox9DTKeOyLI2Atj/3ONOvNn4TJemSNQkVGhcrrsCgoOUWSoV87cPGUX2hQcHaGwQIfxE3KqOD9fuQUeBUZEKSzYK09RgQryCpXvNCe6MjhSNPeJO/XB1qqq9+xHev5Su0IYg2xZaWlpmjBhgpYsWaJRo0apZs2a/iUAAACANR1MzVSTfqPNcbz7LNj/Zpct0AiPcQkqXba8yiclKemnUl7l4n8WaE1GAI1OLK8KvjYVVK60GWjNBQ4FR8YpoUxplS5T7mfbKqsyJwKtyQiS0aXL+5dVUPkyJYHWZAsKVURsKZWKDvUHWlOgAqPKqNyJ7ZUv5Qu0JntIlGJLGQHXF2h9NQowt18qXjFGoDXrAoxwG2OE4JiwEzMkG3trBNyYuHjF+QKtr0bBEbEqZfwcKpj7VK60ooygat4vN9IIwr59iIhRfCkjKPsCrSlQQWHRiouPVaTxg3Joi74Z8ZSeGjBF62OMn0Npo2Qv1YZNB7UxoKwqVzb2jUALAAAA4CzFoNJ/vXiVD07R4TlP6O4O3dWt+9Xqfv0gTXW1VZubblWHcmZ0BgAAAICzE6H2X6+8ml53nx7of5MuLxOokMAgBdbuqht799OAG89X9RBzsDUAAAAAnJ0ItZCSWurSB8brnY+m6JMpUzTlg8l68eZGahjhXw4AAAAAZylCLQAAAADAsgi1AAAAAADLItQCAAAAACyLUAsAAAAAsCxCLQAAAADAsgi1AAAAAADLItQCAAAAACyLUAsAAAAAsCxCLQAAAADAsgi1AAAAAADLItQCAAAAACyLUAsAAAAAsCxCLQAAAADAsgi1AAAAAADLItQCAAAAACyLUAsAAAAAsCxCLQAAAADAsgi1AAAAAADLItQCAAAAACyLUAsAAAAAsCxCLQAAAADAsgi1AAAAAADLItQCAAAAACyLUAsAAAAAsCxCLQAAAADAsgi1AAAAAADLItQCAAAAACzLgqHWI487U8l79+rQsSzlmVXOfOUm79WuQ2nKKnD7WhXlpOjo3j06lOFUkcdXBQAAAAA4x1gw1BapMGue3uzziJ6bsEA/mFXHf9Tatx7TXc9N06Jtvpirg8vf0RuPPKiXvk3V/nxfFQAAAADgHGPBUBuooLDGurLXPbrhqvNU1ayKrqwa7e9SnxuaqUFSiK9VQp0r1Pme+3Vd02glBvuqAAAAAADnGAuG2gAFhFRT06s6qM0FVVXWrAovrfJNOqhbm3qqUirI1yq6YmNd1KGTWtUMU0ygrwoAAAAAcI5hoigAAAAAgGURagEAAAAAlkWoBQAAAABYFqEWAAAAAGBZhFoAAAAAgGURagEAAAAAlkWoBQAAAABYFqEWAAAAAGBZhFoAAAAAgGURagEAAAAAlkWoBQAAAABY1lkZau12uwICAvzfATgT5nvJfE8BAAAA5yJbQs8hC4zHNl8M6KHmtSuV1P6D+vTpo6NHj+qJJ55Q3bp1ZbPZ5PV6/UsB/BHm+yctLU1vvvmmli1bplGjRqlmzZr+pQAAAIA1HUzNVJN+o2UkxX1nXajt27evNmzYoJtuuklVq1b1nZR7PB7/UgB/hMPhUEZGhmbOnKmDBw9q3Lhxql69un8pAAAAYE1ndah99NFHNXXqVF9vUkxMDD21wBkwhx3n5+dr9+7dSkhI0DvvvOP7sAgAAACwsrO+p3bVqlXq1q2bkpKSCLXAGTDfP9nZ2Zo3b55vGPKECRPoqQUAAIDlndWh1rymNj09Xc8995wqVqzorwXwZzmdTo0ePdoXbEeOHMk1tQAAALC8k0PtWTclKr2ywN+D9xYAAADORWddT+3DDz+sPXv2+Hpsa9Wq5a8F8GeZE0W99957+uGHHzR27Fh6agEAAGB5Z/XwY/NWPhMnTlR0dLRCQkL8tQD+LLfb7bue9rzzztNbb72lypX/r737AJOqPPg2/p+Z7Z1tdJayuyxLB0URpCk2sGGJDYKJsYv6GmvEmhhjI9giSoIFRWMBKyC99yYgRaTXLbBsmZ3Zad85swPBvGio75dH758ed/c5Z86ZGa+9Zu49ZZpG5gAAAABm+q+O2ilTpoQn++I29ptxAMfHvliU/Qeitm3basCAAeE/GAEAAAAm+6+O2urqank8nvD5f/abcQDH58DvUlRUlBITE8Mf8wMAAACY7L86agEAAAAA+Cn/1Vc/BgAAAADgSBG1AAAAAABjEbUAAAAAAGMRtQAAAAAAYxG1AAAAAABjEbUAAAAAAGMRtQAAAAAAYxG1AAAAAABjEbUAAAAAAGMRtQAAAAAAYxG1AAAAAABjEbUAAAAAAGMRtQAAAAAAYxG1AAAAAABjEbUAAAAAAGMRtQAAAAAAYxG1AAAAAABjEbUAAAAAAGMRtQAAAAAAYxG1AAAAAABjEbUAAAAAAGMRtQAAAAAAYxG1AAAAAABjEbUAAAAAAGMRtQAAAAAAYxG1AAAAAABjEbUAAAAAAGMRtQAAAAAAYxG1AAAAAABjEbUAAAAAAGMRtQAAAAAAYxG1AAAAAABjEbUAAAAAAGMRtQAAAAAAYxG1AAAAAABjEbUAAAAAAGMRtQAAAAAAYxG1AAAAAABjEbUAAAAAAGMRtQAAAAAAYxG1AAAAAABjEbUAAAAAAGMRtQAAAAAAYxG1AAAAAABjEbUAAAAAAGMRtQAAAAAAYxG1AAAAAABjEbUAAAAAAGMRtQAAAAAAYxG1AAAAAABjEbUAAAAAAGMRtQAAAAAAYxG1AAAAAABjEbUAAAAAAGMRtQAAAAAAYxG1AAAAAABjEbUAAAAAAGMRtQAAAAAAYxG1AAAAAABjEbUAAAAAAGMRtQAAAAAAYxG1AAAAAABjEbUAAAAAAGMRtQAAAAAAYxG1AAAAAABjEbUAAAAAAGMRtQAAAAAAYxG1AAAAAABjEbUAAAAAAGMRtQAAAAAAYxG1AAAAAABjEbUAAAAAAGMRtQAAAAAAYxG1AAAAAABjEbUAAAAAAGMRtQAAAAAAYxG1AAAAAABjEbUAAAAAAGMRtQAAAAAAYxG1AAAAAABjEbUAAAAAAGMRtQAAAAAAYxG1AAAAAABjEbUAAAAAAGMRtQAAAAAAYxG1AAAAAABjEbUAAAAAAGMRtQAAAAAAYxG1AAAAAABjEbUAAAAAAGMRtQAAAAAAYxG1AAAAAABjEbUAAAAAAGMRtQAAAAAAYxG1AAAAAABjEbUAAAAAAGMRtQAAAAAAYxG1AAAAAABjEbUAAAAAAGMRtQAAAAAAYxG1AAAAAABjEbUAAAAAAGMRtQAAAAAAYxG1AAAAAABjEbUAAAAAAGMRtQAAAAAAYxG1AAAAAABjEbUAAAAAAGMRtQAAAAAAYxG1AAAAAABjEbUAAAAAAGMRtQAAAAAAYxG1AAAAAABjEbUAAAAAAGMRtQAAAAAAYxG1AAAAAABjEbUAAAAAAGMRtQAAAAAAYxG1AAAAAABjEbUAAAAAAGMRtQAAAAAAYxG1AAAAAABjEbUAAAAAAGMRtQAAAAAAYxG1AAAAAABjEbUAAAAAAGMRtQAAAAAAYxG1AAAAAABjEbUAAAAAAGMRtQAAAAAAYxG1AAAAAABjEbUAAAAAAGMRtQAAAAAAYxG1AAAAAABjEbUAAAAAAGMRtQAAAAAAYxG1AAAAAABjEbUAAAAAAGMRtQAAAAAAYxG1AAAAAABjEbUAAAAAAGMRtQAAAAAAYxG1AAAAAABjEbUAAAAAAGMRtQAAAAAAYxG1AAAAAABjEbUAAAAAAGMRtQAAAAAAYxG1AAAAAABjEbUAAAAAAGMRtQAAAAAAYxG1AAAAAABjEbUAAAAAAGMRtQAAAAAAYxG1AAAAAABjEbUAAAAAAGMRtQAAAAAAYxG1AAAAAABjEbUAAAAAAGMRtQAAAAAAYxG1AAAAAABjEbUAAAAAAGMRtQAAAAAAYxG1AAAAAABjEbUAAAAAAGMRtQAAAAAAYxG1AAAAAABjEbUAAAAAAGMRtQAAAAAAYxG1AAAAAABjEbUAAAAAAGMRtQAAAAAAYxG1AAAAAABjEbUAAAAAAGMRtQAAAAAAYxG1AAAAAABjEbUAAAAAAGMRtQAAAAAAYxG1AAAAAABjEbUAAAAAAGMRtQAAAAAAYxG1AAAAAABjEbUAAAAAAGMRtQAAAAAAYxG1AAAAAABjEbUAAAAAAGMRtQAAAAAAYxG1AAAAAABjEbUAAAAAAGMRtQAAAAAAYzmyBj8xzfraa+z9g9StIKd2FADwi7R//36VlZXJ7/crFApFRgEcD5fLpcTERGVkZIS/BwAcv20lZep870uy3q1sJmoBAAe9++67+vTTT+X1ennzDRwnh8MR/gOR0+lU+/btdfvttyszMzMyFwBwPIhaAMBhPfTQQxo7dqzy8vKUnp4eflPOHlvg2NgxW1lZqY0bNyo7O1uvvvqqmjZtGpkLADgeRC0A4LCGDBmidevW6cYbb1Rubm5kFMCxsP8otHfvXn344Ydav359OGrtPxgBAI4fUQsAOKw77rhD+/bt05NPPqlmzZpFRgEcK7fbrVdeeUVTp07V8OHDlZ+fH5kDADgeh0YtVz8GABxk71kKBALyeDyREQDHw/5d8vl8kZ8AACcDUQsA+F84jxY4MfhdAoCTj6gFAAAAABiLqAUAHJHtO4s09quZ+udn0/TR5/Y0/TDTNH0wboqWfLMucisAAICTi6gFAByR4tIyrf1us3w1NXI6rIFQ4IeTgnJarypbd+zW95t2hG8DAABwshG1AIAjYp8bmJWRpl5d2+mcnqeoT/dOP5jOsiZ7PL95o/DncwIAAPxf4F0HAODIORxyRbkUGxuj+Pg4xcfF1k7W93HW1+ioKGsRXloAAMD/Hd55AACOkCO8t9bn86uyyq3y8gpVVFSGJ/v7yspKebw1tVd7tQ9PNkUoqKC/Rl6vt3aq8SsQjMwLCyng+9f8Gnt+ZM7RC1mb86smvC6ftR37yrihf23fF1B4yFrGX2MvUyNryP4MPgAA8COIWgDAEXFYoepyuayIrdLEiRP19ttv6/0PPghP7733nt5//wNt3rw5vIzDpKrdt0wrR92hAf37qV8/a7r5b3pv7p7ITCtgA7P07kO/01X2vH5X6vrf/0PT3D55I0scnRJtWfo3PdD/Ml107XB98u0+a+w7LX3vHl3W7xpd+thErS22KvbbD/T6bdb2Bt+vp6d7tY+POQUA4EcRtQCAI2N1qsMqW7fbrVWrVmn+/PlatGhReFqwYIEWL16k4uLi2kVN2lNbvVtFKybqq8lTNGWKNY2eonlr9ijckcFKhZZ9qbEfv6Nx9rwpn+nzySu0xR84xr211SrbtURTJn+pr8cttALWY40Va9vCj/TllE80/otvtaciaLXvai2dYG3v8ymau8Wv6mPfNfxf4lt9PvIrzV64TfYjBgDgRCJqAQBHyCGfz6dgMKjCgkJ169ZdXbqcFp66du0a/pqYkKTqasOyxRmj6MQ6SnBFfg58r517tmqj/b2vWhWLV2l3TZzkcsjpSFF6WqJirFnH1u2pSktOUZojUa70JMW5AgoqR60v/oP+cO9jeujOHmqR4ZIvGKukOtbi6WlKjrG3W3tr84Tkr56vT//6nP709OdauNsv65kEAOCEImoBAEfEPqTYH4naDh07qm/fc9SrV+/w1KfP2erZs7eSU1KtqK0OL22UUEgOl1NRCQmKcXynNStXaV5xSIGqMq1cv1Nl7lQlJCco2WmfE2st64xStH27fVu0YdEMTZ88SZOnzNGcFTu0/9C9qqGg/HtWa9WimZo+dbKmLV2oxTuC1ouvQ1H2UxSyozZD9dudq19de7mu6p2rzAT7jweRlYQOXJirRmVbVmnB7Fla9M1mldTOlcq3atMya/tT7O1P1Yx5S7RsW7Wq7XOCA/u0b+NyLVy2VMu2bNSqBfM0Z/J0TZ+9QCtWrdOOvVv0zYLZmjJlumbMWapVG4rkrl1rhFvubcs0Z8YUTZ48WVNnLtKaInfksOuAAjW7tembpVq4cKPWrl6pNQsnWeuaqdnz7eVqwntkq4sX6uuRz+jRu9/Rgm3fatmqmZq5eqt214RXAgDACUHUAgCOiH1IcdCKP/viRdUe749MHvkDAbMOP7YErfvsjItVUus2apwWqz0rv9OqlXvlrliveUuLVBLbQDl166pe0G91pisctTWe/Voy8kE9OPhqXXfTzfrdbwfq8kFPa9SM71XlD69VwT3faNZff6eBV1yh666/SXc+/Ypem7BNlVasRkVb63HFKErrteSdO3XxuVfqwofHa01xQPEJ4WS25kcrOsarypIpGv3gtbrokoG659WvtdK+uFV1qda/fZ/u+d01GnjLXRpy60369ZUDdPXj4zTpe58CZYs1/8Xr1e+yy3TFk8P05AMP65EbB+q6yy7SrwbfoqdGDtMDD92r2264TtdccpkG/c8IjSvzyGsHccj6f7n6n/rgyRt08dU36MYbb9TgK6/SXcM+0ZRSn/XIPHKXfqrhN1ylC86/R3c/+KSGP20/B7/SgH6X6IZhc7W4Iqi9K6br879N1jpZT0jNEn358h/19NtTtKgy/PAAADghiFoAwBELBIKqqHKrbH/5Yab94asg19QYuBvOitpQdLRczZqrUXodOXbsUdG2dXJXb9Cm3UFFF5yu/BYtlB3yyRWbIF9FkeaPvENPPDdWi7Iv040j/6G/PnW2Wu0ap6cffVf/XFxhrXSXti78u/48ermW+3ro6gde16vXdVWX0tn6Vj4rC11W0Nr175V73w5t2rNZW3aXy+OzYjZyvHF0fECVxcv1z/ue05uffCNf234657fnq31gr/zT/qzHRozVpKj+uurPr+tvT96pAVlbtf2ff9TIKau0db9DIfdulWzarO+nVSl/8P3687DrdV1hldYtmaHRr21RzvUP6rVnrtIljbZq2YSP9cKw+SrZb/3/2/SBRv75UT3yVUBNrhimF19+VQ/0dGrziCf18mtTrQyPkt/hUfnObSrd+6W+i2mtzg+/oece66v8yt2a+8bbmjRrqzI7XqjL7+yndjHxciacpovvelxDf9NXpyWHHx4AACcEUQsAOGL7K9xat2m3Vm/YqbXf/3BaY032+K7i/QoEf/CZOAawDwOOVyjuDHUobKKC0Drtmval5i6bp4VWpCfkt1HDug0UbR82HF2u6soZ+vrTSZpYVF8tzx+k+3r31MXX3K3rT/OqYvY4TVy9VTuqtmnN5LGav0eqe/ZvdOGVZ6l7/wvV/7z2auCwgtMK6dpnyYrbmAQlOZKUEG+Ftf3KHJKi4hwK7P5WC0Y8qJffm6GSbnfr7qEP66ZTGyvdmaioVhfr+qc/0Ju3dlKLdW9q1JjPNW+P0wrurSoq3acqf5xi4+KtlVkFmdRMp515jrpc3F+9TmtmbTFBlSmdddHZF6nXFeep+ymNJF+xNq8tldsb0K55E/XF2K3amdlNV/7+EvW/4DzdelNftY1Zr6lfzdac7bEKhGKVmJxoPSON1LJzL/Xv1EeXXthPZ+amKbp0gVZv3KXqjAK16Zqvuq4o6wE1VmG3s9W1ZSNl1+6IBgDghCBqAQBHpF52urqf1l7tWrdU61Z5al2Y/8OplT3l6Ywu7VSY3zRyK1MEFQxapRXKUau8BmqVVaTVk7/SyHfmaYO7rtqc3kBNclzy2mfDOirlD27WzrJY6ycrACe/qKH336/7hryoD1cXy61lWrNps+Zbgfjtkh1yxqWr3WlNlZJobcaZocwOnZRj3dJphf9Ppb8r1orasiLtXDZXW6zQLM88Ra0a1leWPdOKYmeMdX/9Fdo96yNNmrBCa2NiFbLiMcqRoDhrnsthf/5tQIqLU1JBrtIc9nm6Pnmj4hWjFCXnNVdDn32cdFA1sUnW1xglJ8eEDx3ft7NMbuvOxZcv1fRnH9D9D9ynP7wxV8vLJO+GtZr/TbECvqBcUU6rv5upfnpy+H5VVMYqPsGheOuZ8gS8KrcPU66ols/+7OKQV+7ysmP8KCQAAH4cUQsAOCJ1s9LVp3sn9e15is46s/OPTuf26mJg1FrNFbSjr0aN8lqoectU7dq5TlMmFckXaK3TO6SqaYOa2o/5sfrMfvm0DxGOUoWKN63UnDmzNW/FBgU6Xqmrrh6oi9tkK67ELXe1tbgjxupKp6Kiam9sX2gqvIr/IOSzloqto4QG7dQi2SH3tDf19cwV2m/PdO/R5jH36e6BgzTkc7dSfztCb7zxvIacFqt0p0ee8Dm91jpCVplaG07NyFRUnH15Z7+1/aC1fWvy1ajGnm9N9tgPOJxyWc3s279DGxfM0azZczV7X1O1u+Rq/erqM9UxpSIc9IGgfZi0T36/P/zchEL2mP0oXXI5rXC3H699/q89diQPGgCAY0DUAgBgqQ07h7JO6ai8VvUUH6qW1x8vZ+N8NU1IVrrP/mxaO0hj5HQkKzHavsJvQ50y+Dm9P3uOZkz5p/7+7B819KHHdNM5bXVuswS1aJkkf02R1q0uVbl9mq11C0/xHpXb63HY15P+cUGvVYEZbVV49dO697ouOtUzVeMnjNdXJT55q6o0b/5KlVjrbHHZ7bru1x3Veu9W7SrxqjpkBanLWvchKw9ZRXkkUWkvYt8sLtEqWo/Vwy36afAbMzR11ixNfPclvfDoH/T4Xb/SVadnhw+TrvH/Wwz/L1bYOqIV5bKvGG0fZh2n2MgcAABOFKIWAPALZwVfMBD+uCL7aN1g4xxl18tWXXtWdIrqdTtTeRnZSvV4VGP94/GmKiauh7p1aah8xwZt+G6z1gZC2r9rrF787UBdcc2zemvebkU1z1Pbs3oqJzakDdO/1rp1FfKsX6gFY8frm5DXCmQrPMOhGdl+yG9t396Lag8FVXu9LZeanXKGzh/6e13ao752f/G23nptjtb5nArFx8o+Y7a01KOSNTu0ds47+nBxjUqDDrnsPabWfQoF/ZL/kPUe2Jb9zyFjwfBear9qrHB3OJxqfGondewYJd/OTVqxosyK6GqtH32v/ueyq3Tr8IlaEoyrjXJ7/eE9trVrsss5GAiv3RqzJsUpMb6xcuo5FO10q6KsTPtrrLn/qYUBADgKRC0A4JfNDsCaagU9VXLXBOQJFSgvp4Va2RczislSx55t1KBOsvxVVbI/gbe8zC1Xap7Ovu1F/WFQKyVOfkQ3ndlNffvfr+em71Dq2aeoQ+t0Kaqp8s69Uy/8po0yv39Zj/72XF34p3f1/t7GyrJyz6pjecMxGFTA55HHWnuN1x8+VFdBn6y7JFVXKGjvFa7fT1f276JTtUYT331PY7fUVcfbbtFZLZNV9unjeuCKi3TTX75QWZ3G1o0qtGVLmYqLrIfm91jbqVa19bhqu7N2W35rW9Veaywcl7WP394163ZXW/Ocim4zSLc/dKduz/9WH9/fV3379NaVQz/QxGAbNe98qvKdPiucvdaqa293YI9tyApzn7096x+vv0ZeK9zTMgrVs0uC4ssn6h8PDtLVD/xD760NLw4AwAnhSuzQe7D1telV3durSWZa7SgA4Bdp/PjxVti41bNnT2VlhS9J9PPnjFZ0WlM17tRHF5zVXWfk1VfDzEzVz8tTp/Mu0aXndFJucoxi4lLUKL+zep7bS907N1ezjEZqWdBMjeplKaNOQzXN765zLh6sW+8eoB71Eq00dCkqNUe5LZuoUZMcNWpYT43ananufS/VJR26qHu/3urZNV8NUxIUHd9AzVr11Lnndlf31nWVnJSghMYt1abXuTr7tHbKrxOtjPr11bRVgVp27qzOHU5Rl7YFatbYiu+W1jaaN1XBqRfo8qsuU48e3dTj9K46pUU9ZTdqooadzrYe1xnqmpum5JgoRSc0Dm/rgvO6q1thtpLiYhWb0FTN2vZWv76nq0vLLMXHpyk9r7XaNK2vOhnpatikqVr36KcrbrlT15+fp6YxIbmcCUrKaq123c/SOX06KK9+sjUWo+TsXLU7o6/O7tNFhfXTrPWnqm6Txspp214F1v1snN9ebVrlqllq5Pn/mau2wn/JkiXaunWrzj//fGVkZETmAACOR7nbo9cnLbS/LXNkDX5imvVNr7H3D1K3ghx7EADwCzVkyBAVFxdr6NChKiwsjIwCOFalpaUaMWKEZs2apeHDhys/Pz8yBwBwPLaVlKnzvS/Zp9Js5vBjAAAAAICxiFoAAAAAgLGIWgAAAACAsYhaAAAAAICxiFoAAAAAgLGIWgAAAACAsYhaAMAPOBwOOZ28PAAngv27ZP9OAQBOHt61AAB+IBQKhScAx4/fJQA4+RxZg5+YZn3tNfb+QepWkFM7CgD4Rbrjjju0ceNG3XbbbcrPzw+P8aYcODYul0slJSUaM2aMVq9erVdeeUV5eXmRuQCA47GtpEyd731J1ruUzUQtAOCghx9+WJ999pkKCgqUmZkZPnQyGAxG5gI4GnbUlpeXa/369crKytKLL76opk2bRuYCAI4HUQsAOKxHHnlEEyZMUNu2bcNvwu1zAdlTCxwb+/enoqJCa9asUUpKioYNG0bUAsAJQtQCAA5ryJAhKi4u1tChQ1VYWBgZBXCsSktLNWLECM2aNUvDhw8/eFg/AOD4HBq1XCgKAHCQvVfWPuQ4Ojo6MgLgeMTExIQPQwYAnDxELQDgIPtwSfscWp/PFxkBcDxqamoUCAQiPwEATgaiFgAAAABgLKIWAAAAAGAsohYAAAAAYCyiFgAAAABgLKIWAAAAAGAsohYAAAAAYCyiFgAAAABgLFdih96Dra9Nr+reXk0y02pHAQC/SOPHj5fb7VbPnj2VlZUVGT1Ujfx712jRnPla9E2x3FHJqpse/8O/kJZt1qbl0zVjySat3xelrDrJio85tr+hBmqKtWnhHC3d4pEvIUOZCUewnvLvtW7RCi3eUqOEnDpKVLG+X7BQ8+Yv0JLFi7R46XItX25P32j1+gr5UjLVIDUmcuOfVrV9rdYv/Va74jLl2mPdfslczV24RIsWL9Wy8DqtadU6bfelKTU7RUn23Q14tWfVLM37do8qnGmql3botkq1w3quxk9Zq81VDtV1btXiZXut5zVRmSlHdp/w3626ulpLlizR1q1bdf755ysjIyMyBwBwPMrdHr0+aaH9bRlRCwA46D9H7V5VLntNv79pqJ54Zb5KslvqtDPzVMcRma2gymeP0Cv3/k63PT9JH+9sov7dC9U449gCzbtvvt6960Y98bVPUa16qkezqMicn7DuLb1679MaOjmotr85Xbmaq7duvlMPvfChvlq0TEvnz9GcOfY0TV98MFery+KUd2q+6ifF/PThS54tmvPuS3pjzFp5C9srceZjenzoM3px3DwtW7pQc8PrtKbx72vCmpC8DTrqlOYJivGWae6z1+rW11eoJLObLux0IGq8Kl85Us89+IT+8PYOeTLqqnvaN/r7C19osTddrdo3U9oRPFz8dyNqAeDkODRqj+1P5wCAX6iA1a1WsHnrWN+v0Y49yzVnjxSqnWnZp2/XfKdFi+zvPfIFAvbixyzKZW3O57W255M/GBn8T4J++Wu88nj99r217ptP3vJSJTS9RNcN+0JffHFgelNPXpWgHe89rfseHacV1cFDHse/C6l86j80dfl2lfS6WZe0iFd2aL9217RUh6v+qNEH1/mZvnj+Op2+a4z+PuxFfbLbeq5CUXIF7MdQI5//wBYCClR/pRGPvaH317XXgKF/0vM3n6OGHQZo0BlF2r5imkZNLf+J+wMAAA4gagEARyGkkCNeMTF5al7Hr8qy1Zq7cL+CB4Nzu7buTFBNKENNO8YrLcWp0JHG6GFEx8QoJjZOsTHRijrSVyxnlKJiYhUXa8Vk7YBcUdFKTG+knMJc5eYemM7UtQ/frusvjFHR+Pf1/kyvin3hG/wbOy1XadKX32lzaZ76X1egxpnRcoWccsRlKDunldofXGe+ci+/RRednqWUtTM0ee5+VXuDiom3HkNsjKKjIrteK5frowf/ohcX1tVpv75Tf/x1azXKSlF0Uo46//oC5Zdu1ndfTLS2eugfDAAAwOEQtQCAoxLe8xqKV6d2zZQerNCyGctVdODVZPsSrXUnqDKvg3pkS4mOoHwHq6xMe1e+rSduuk4Dr71W1/76Vv3pw4VaH5kbFvhGM95+XLdcb8+/Tdc9OE7L9rjlSoo+vhcsh0OhgFeeysjPEXEN+6hH79Zq6NugRct3aX91ZMahQlbpbp6haUVxqszprksyw4PyBuwXUb981krLwwtGuHLVuFkTNQiVa/dWe291UE6nw7pJSDEpWVL1ds157VE983a5ml1xq+6/sbtyEiO3tdXtrpaJ21VlRfHMrbK2AAAAfgpRCwA4KqGgfZhuQI17d1WrBrHyLJiixfvsS0hJ5XNnapczSmlnnqXmVgtGW0EXDO8v9WjXyvf0zjMv6a055dpVUaWqDV9q3Ct/0wsffas99nqtNNz82d/06t8+0CfLrfkV21W+aLLmbdurYn+0og+et3siJSg5sYmyM70q2b5OXrd9wPK/sR5D0fTZ2mS9ZCa0badw01pjIbtTHdGKSUhVenjBCM9yrV+1Tt87M5RTkKiYKJeCAavs41IUU/attn7ysl5+63ulDr5Xj97TX53r/ftLcQO1bZ+kKOdWzZpWpBqqFgCAn0TUAgCOjh21oZDcud1U0DJd+ZUrtGyLFbSq0rJ56+TxJatDp0L55JDdck6n9VLj+1Yz3/9Yb89rrGvf+ExffzZO4754XtckrdaMl97SlPKgqtzL9enrX2uFq69uGWHN/2Sk/nl/J2XHOVW+PyDHSXnFilZaapbSkt3aV7xLNV47zX8o6NuvxYvXyV3tUuPG2ZFRhxwOhxXtRdqxcqrGTpqkSeFpoia9+Be9v9SnqNMv1IWnJysh1il/0KFYX5nWffqsnv/TcI0raa5WF/VW54bxkfUdKk2t8lsoxVmk7xctVuBfu7oBAMBhELUAgKNUG7U1vg5q2bypCprv1bZNxfLsnakF34a0z9dALXICdvcpZL/M2Ife7lik79ZUq7RpB3XI2KWioiIVefJULzdedctWaM6UIu1dOltLt7mUXNBWp7axt5OluO7X6KLW9ZQT75XnMDtRT4RgMKBgwKGoqOhwqP67YHCrduyukiu2gerWi4uMWlFrxXq8f72++WyY7rvlFt0Snm7VLa/M164ON+muu29SvzQpxhmU33oeEjd8rUlTF+rjfdmqX2eFxrzwgSbMKz3k8Ox/ccTFKtpdJRXttHeNR0YBAMDhELUAgGMQUsAXpQYN6io5Rfpm8kSVTfhSy72NFJvfWqc18FrZF7Lytzb+tKdE5UWrtHPpKD18RV+dc1Yf9TlvkB75cLlWuEPauf47+dZ9p91V6UrOyVbjhNqtBOMK1bJJkjJS/AqclKj1qHTvTpXut7ZRP0ex8Yf76CFr21ZXOpxRctVeeSocmsFgUNVRBeo44H4NHzVKo8LTmxo1Zpze/ONvNLBjrOzLQoWCofAfAXzlASWe9ivd/vZovX7nqWq85BU9NGycPl/zv6s2NjND2Rnp1qb94dsCAIAfR9QCAI6e1VkBv0eZTXKVn9NQZV9+qpGffKFV9VqqsFMr5bt84RizeywcZQkxik5oqNTmPTTghht188036+Ybb9fDL7ytN0c+pYcuylJ6drz1olQtf5VXVZGOCwX2qazcJ6/XaV/r6ST4Tls3LtHKsgRlNs5XXPzhXhatxxH57l/CD0w+V6bqteqm8888U2cemM7oovY5aUqJ3N+Qff6tFcHuJh3V44Jf6ea+Z+rsX/2Phl+ZLs/MV/Xi2FnhqxwfyldZpYqKyvCe45PysAEA+BkhagEAxyTkr1FUQmsVdGipJrun671p2xVo1lqd2yQoxmNf3ciO2qDCl0vOaaOGOVmqE6qr9gOH6Nbbbtftt12vfs0qVbZxi8qTW8jVrrvaZhRpw/R5mrO6dhsuzzzNX7tPm/dGKybyaTjHxApQZ3SCEu2P1z1E6cz39c/3lml7Wmf17ZahzMOc4upwZCs1ySW/tzR8bu+hHCGfatzl2hf5+fBqA9if3UyN62UpzR5KO1O97nhctxbu1NrXn9CrH61RcXjZWqHKSpUH/PInpdq7iCOjAADgcHilBAAchaAVs9WqLK9QVXW1qpSuus2b6/RmJSre20S5Oblqa39qjccjd/l+7a+ols9nhWDKKTrt3Nbq5pioF37/tl4a/b7e/8et+t0d9+q+V2doxc5oher30iXXnK76JTP04ZPPa8yYf+jNF7/Sgt3F2uf0W+v53/tLD8v+6J6KcmvbHvnC+1j9qvFUa/f62Zo6eoy13gPTcD3+l+laXNNLA387UFd0cinlwOHFh3BG1Ve7woZyOfdpy7ay2kGH9Ux4K1VRXqlKK+B/8p7Ze3Sry1Wxb5/KKj2RQUvzi3Xd7QPU3T1F79z3oJ79aok21ASsZ1gqKymRLz5b6YVt5IhiXy0AAD+FqAUAHIVouZIbKrdNnpplJ4U/rCc1u5V6X36uzuh7uc62L+pkjYUSMtUgv53a5WYpKda+XZY6X3q77vp9NyXOfUovPfGoHn16qr7JuFa//cPDGnKKtZ6YBjrj7vt1/7V5il0yQo89NkLPfhKtZt3aqU+vhsqKO8KXLCsG67csVLuW9ZVmvcw5rfBu2PpUNUnapJXvPGat98D0ir4qP1WXPvVXvXJPb+X8yB5RR5RLbXqcpnpx0SrdsMEKZYszWrHZeSpona/c+snhc2d/lCtKqY0L1aZVC+VkhJ+Mg5oO+J0G/f5KFWqVZrw6Xss8XgVD2zR/3gaVehuoa882ijk5n2UEAMDPhiNr8BPTrK+9xt4/SN0K7LciAIBfqiFDhqi4uFhDhw5VYWFhZPRQAQU95Sou8cqZkqq0lHhFB7zylu9VcXWcUtJTlBLnspap0P59+1ThTFNWepLio+1gDCnkKdG2rcWq9NvnqUYpOiVb2dl1lHbw+kxBecv2aPeeMmsZl5xRiUpN9SsUk6qkhDSlHrj48E/xlauspELlSlRG/VQlyKPyPXtVVumWt6ZGvoMXE3bKlZiluvUzVeeHrflvAlLNJD0/eLQWBrro1g+GqId1PwP7i1RUEZIrqY4y0+LCgX9YwYCq9+1WqSdKcSnpykyOjsywWY+3okR7rMdb40hRZrMMpe16R/dd+44W1L1Ifxh9t862Fucv0OYqLS3ViBEjNGvWLA0fPlz5+fmROQCA47GtpEyd733JPlpqM6+TAICjYIVmXB3VbVRPWXbQhodiFVunvho1qBMOWpszLll16jdRk7opkaC1OeSIy1KT/EIrmFurdWFL5Tc6NGhtTsWm1VdOy1Zq3TpfrVo2VIN6OWqYfoRBa4tOUVr9hmpSP83KWvtCS/FKrdtQOS3ylN/K2m7rA1MrFTT9T0Frsx5TzBm66Ix4ZYYWavT4MiuMnYpKracGjeqr7k8Frc3pUnxGQzVqWPffgtZmPd7kbDXJzVdui3pKcwRVNm+yNtbJVeOeF6orQQsAwH/EayUAwABubZz+jv560/W6/vofm27U9U+M1Zz15ZHbnEgpyrv4cp2W69P2vw3TJ99VK3J27QlUpur1YzXs3XJFt+6pX/fPVXJkDgAA+HFELQDAACH57EOaS4pUVPRjU7GKytzy/Ov44hOr8bnqc8EVuqZTtIL259RGhk8ca53WeqPb/0qXnddLfZtEhgEAwE/inFoAwEH/+ZxaAEeDc2oB4OTgnFoAAAAAwM8CUQsAAAAAMBZRCwAAAAAwFlELAAAAADAWUQsAAAAAMBZRCwAAAAAwFlELAAAAADAWUQsAAAAAMBZRCwAAAAAwFlELAAAAADAWUQsAAAAAMBZRCwAAAAAwFlELAAAAADAWUQsAAAAAMBZRCwAAAAAwFlELAAAAADAWUQsAOApBhWrKtbdol3aWVsntjwwfVCP3/lKVFpep0poXiowCAACcLEQtAOAolKlq1Qg9MvhCnXPjCI1eUhMZP+BbTXzxAd136zB9vE3yREYBAABOFqIWAHAU/ApUbtHapUu0euzbGj9zoTZH5tSq0J4Nq7Vq2QbtqJYCkVEAAICThagFABwVR3SKkus0VnRohWZOGKO35pVG5tiiFJuYrOTURMW5rGUjowAAACcLUQsAOAohhYJO67911LxJpgJFM/Xe8x9qyZ4De2V/eBbtgagt37BA08e8pVGjRmnUm6M15sO5Wl1apaA1z793u9YvmKjxC7/RovHjNOGdUXpr9Dh9vWiddmublk74WGNGvaXR73+hKYs3aW/tKsOCxeu04qvRetNe76j39N70jSp2R2YCAIBfBKIWAHBUgkG/FbYBtTjvcl3WLVvRi/+hP35Sqj12ocr1r661itYZCslfPFsfDH9cDwx5TM8884z+8tRQ3X397/XMuAX6ziPVbJirjx67RgOHDNWTT72gkcOe0RMP3Kt77nxMr339jl574yUNf8a6/W036bZ7XtMnRTXy2tuq2qO57zyvP//+Xj1pr/fpRzTkvmF6a8Ja7eVkXgAAfjGIWgDA0bGC1o5aT8Z5unDAQF3ber+WfTRKC7ZWWDNjFR15ZXFGW31rBfD+qe/oq2111OKuUZowYbw+HzNU1xVs1fyPZ2v6Rik6zqVAyV65V66Wr98DuuujzzXyod6qv3SsXr9zlbJueUZvfT5Sj15ZT96l0/Txhzu0r8ov96Q/6ZUPVmtnt6c0ZsIEffnps7one4beHzlaI+exuxYAgF8KohYAcPRCQdXUuFS/+wBdOvBctd/+jl5/b6nWVgaUHO+qXcRv9a/TpeQzbtMjT/1Jf7mnl3JymiqvXZKVvj7t3VUtt09yOIJyJKUqqe0FGnBWT3VvnqtT2xQqt4VL1Wnt1LOwi1rm9lKn1s2Vk+pW5f5KeWo2a+G0mdqZ1EHdBl2vLjk5alFwof7n2rZKLlmt6XNX/OAwZQAA8PNF1AIAjo2vUtUJKcrr3V+/PaVCi0b/TW8uXKfvlawYZyh8FHKUw6mYxCrtm/93PX/XQF199dW6/LK/6otdFQrVTVa8/SoU8CsYHS9X/QLlpdS+LLm9LsVlpSipeSPV9dsfhutTTShWiUmxSoj3KRRar1VbPNq5Ya6mPv9rXWut95prrtUtf5+r5cuXa/vmNdoUXhMAAPi5I2oBAMfGEZLXJ7kyO6rPwN+oj3+Cxo39TF+uqFRyTJSiYu1eLdH60U/pz8PG6JNllfJ6o6ToRmqQEauk+IAC4fNwHeE9vyFftap9kctNWT8H/PZYjRWz9kLW90FrLLy8rTaag8GA/DVea71eeTwBVeX01+AhN+n2i9oqtXZBAADwM0fUAgCOmcPeierKUmL3G3XX7zooecV8LZy7WhWxcYqOlmq8GzV1wgqtcZ6lgX8Zq08+eUcfDbtAhYmx8pdZNz7qVyE7hGPldOSpdeNYNcrvoXMfHKOPPvnEWvdH+uDZO3TDVefpzPZ5yoncAgAA/LwRtQCAoxCSgn75ampU4w+EP5LH5kjKUNc77tSAOrEKubdosT8onzXT5YxTSlqCPMUb9N3KlSra/Y3WffGZZmzaox3ugEL+kBzWWvw+r7w+a32RKyfbF6IK74E9ZCwY8Fnb9cjjdckZ1UxdenZVdsVyzX3/Xa0oKlLRzg0a9/gNuuGGB/TCF2tVXnszAADwM0fUAgCOgsP61ymny2UFq/Pg59DaH+XjiDtPV57TQWekS+6AHapSXGyezr+sp3rXXanxT12mPpf+QYO/bqFu+dlqHr1TRUXV1uqsSA2vz3FwfQ6H419jkUFHZLuOoH3Mc7SSzhuq2y5vqcwp9+ryPn3U5+z+un1ksdIuuFwDLixQcu3NAADAz5wrsUPvwdbXpld1b68mmWm1owCAX6Tx48fL7XarZ8+eysrKioweKkquhAZq2q6bevQ4Re0apinp4J9Ho5XeuIVaduml3mf3UbeWDVQ3NlrxjayxNp3UsUN7tet4hrr27acrL+imbt27qnNBE9XPTlNW/inqdmZ3ndIyW8lxTkUlpath69OtbXRVh+bpSohxKSG9kQq69FTProXKrxev6LgUNWnRQi3yctWkoKM6n3qael98ra4d2E/dGyRb9wb4/6+6ulpLlizR1q1bdf755ysjIyMyBwBwPMrdHr0+aaH9bZkja/AT06xveo29f5C6FXAGEgD8kg0ZMkTFxcUaOnSoCgsLI6MAjlVpaalGjBihWbNmafjw4crPz4/MAQAcj20lZep870v2iVGbOfwYAAAAAGAsohYAAAAAYCyiFgAAAABgLKIWAAAAAGAsohYAAAAAYCyiFgAAAABgLKIWAAAAAGAsohYAAAAAYCyiFgAAAABgLKIWAAAAAGAsohYAAAAAYCyiFgAAAABgLKIWAAAAAGAsohYAAAAAYCyiFgAAAABgLKIWAAAAAGAsohYAAAAAYCyiFgAAAABgLKIWAAAAAGAsohYAAAAAYCyiFgAAAABgLKIWAAAAAGAsohYAAAAAYCyiFgAAAABgLKIWAAAAAGAsohYAAAAAYCyiFgAAAABgLKIWAAAAAGAsohYAAAAAYCyiFgAAAABgLKIWAAAAAGAsohYAcBS8qt4/VW/e94CeHTVL39hDJau15K0Hddszn2r2d+7wUtvnv6MRD9yjF74u1bbq8BAAAMBJQdQCAI5CyJqCCvj98geC4Z/ssWAg8nPtgELB2mUCwdDBMQAAgJOBqAUAHIU4xaeerd++8JwevKGn2ttDmW106m+e1YgHL9WZ+QnhpRqf8Wvd+txw3XtepprUDgEAAJwURC0AAAAAwFhELQAAAADAWEQtAAAAAMBYRC0AAAAAwFhELQAAAADAWEQtAAAAAMBYRC0AAAAAwFhELQAAAADAWEQtAAAAAMBYRC0AAAAAwFhELQAAAADAWEQtAAAAAMBYRC0A4AccDkd4AnD8+H0CgJOPqAUA/EBUVJQSExMjPwE4HklJSYqJiSFsAeAkcmQNfmKa9bXX2PsHqVtBTu0oAOAX6a677tL8+fPVv39/NWrUKDIK4FhVVFRo2rRp2r9/v0aMGKHc3NzIHADA8dhWUqbO976kkLSZqAUAHHT33Xfr448/VkFBgdLS0sJ7l0Ih6+UCwFFzOp1yu93asGGDsrKyNGrUKDVv3jwyFwBwPIhaAMBh3XnnnVq9erUGDRqkZs2ahaM2GAxG5gI4Gvah/KWlpfrss8+0ZcsWvfrqq+ypBYAThKgFABzWkCFDVFRUpKFDh6pVq1bsqQWOg/37U1JSotdff12zZ8/W8OHDlZ+fH5kLADgeh0YtF4oCABxkB2x0dHT4QlH2oZP2m3L7KxMT09FP9u9PcnKyYmNjI79hAICTgT21AICD7MOPV65cGT78mHP/gONjh+3evXv16aefauvWreHDj/Py8iJzAQDHg8OPAQCHZR92/OGHH6phw4ZKTU3l8GPgOLhcLlVVVWnHjh1q0qSJXn75ZeXk8F4LAE4EohYAcFjjxo3ThAkTVF1dHQ5aewJw7OwLrdlx26ZNGw0ePFjp6emROQCA40HUAgAOy+v1hqdAIBAZAXC87MOQ7XPV4+Pj+UMRAJwgRC0AAAAAwFhc/RgAAAAA8LNA1AIAAAAAjEXUAgAAAACMRdQCAAAAAIxF1AIAAAAAjEXUAgAAAACMRdQCAAAAAIxF1AIAAAAAjEXUAgAAAACMRdQCAAAAAIxF1AIAAAAAjEXUAgAAAACMRdQCAAAAAIxF1AIAAAAAjEXUAgAAAACMRdQCAAAAAIxF1AIAAAAAjEXUAgAAAACMRdQCAAAAAIxF1AIAAAAAjEXUAgAAAACMRdQCAAAAAIxF1AIAAAAAjEXUAgAAAACMRdQCAAAAAIxF1AIAAAAAjEXUAgAAAACMRdQCAAAAAIxF1AIAAAAAjEXUAgAAAACMRdQCAAAAAIzlyBr8xDTra6/aHwEAAAAAMENI2uy0/vuW9Y0nMgYAAAAAgBEcodCI/wd4IYnc6Hv13wAAAABJRU5ErkJggg==;" parent="1" vertex="1">
                    <mxGeometry x="520" y="200" width="731.63" height="690" as="geometry"/>
                </mxCell>
                <mxCell id="4" value="TODO&lt;div&gt;&lt;br&gt;&lt;/div&gt;" style="text;html=1;align=center;verticalAlign=middle;resizable=0;points=[];autosize=1;strokeColor=none;fillColor=none;" parent="1" vertex="1">
                    <mxGeometry x="120" y="973" width="60" height="40" as="geometry"/>
                </mxCell>
            </root>
        </mxGraphModel>
    </diagram>
</mxfile>